<svg style="display:none">
	<symbol id="allCategories" fill="none" viewBox="0 0 18 18" xmlns="http://www.w3.org/2000/svg"><path fill-rule="evenodd" clip-rule="evenodd" d="M6 10a2 2 0 0 1 2 2v4a2 2 0 0 1-2 2H2a2 2 0 0 1-2-2v-4a2 2 0 0 1 2-2h4Zm10 0a2 2 0 0 1 2 2v4a2 2 0 0 1-2 2h-4a2 2 0 0 1-2-2v-4a2 2 0 0 1 2-2h4ZM6 0a2 2 0 0 1 2 2v4a2 2 0 0 1-2 2H2a2 2 0 0 1-2-2V2a2 2 0 0 1 2-2h4Zm10 0a2 2 0 0 1 2 2v4a2 2 0 0 1-2 2h-4a2 2 0 0 1-2-2V2a2 2 0 0 1 2-2h4Z" fill="currentColor"/></symbol>
	<symbol id="ChevronLeft" xmlns="http://www.w3.org/2000/svg" fill="none" viewBox="0 0 24 24" stroke="currentColor"><path stroke-linecap="round" stroke-linejoin="round" d="M15.75 19.5L8.25 12l7.5-7.5" /></symbol>
	<symbol id="ChevronRight" xmlns="http://www.w3.org/2000/svg" viewBox="0 0 32 32" fill="currentColor"><path fill-rule="evenodd" clip-rule="evenodd" d="M11.057 7.05721C11.5777 6.53651 12.4219 6.53651 12.9426 7.05721L20.9426 15.0572C21.4633 15.5779 21.4633 16.4221 20.9426 16.9428L12.9426 24.9428C12.4219 25.4635 11.5777 25.4635 11.057 24.9428C10.5363 24.4221 10.5363 23.5779 11.057 23.0572L18.1142 16L11.057 8.94283C10.5363 8.42213 10.5363 7.57791 11.057 7.05721Z"/></symbol>
	<symbol id="ChevronUp" xmlns="http://www.w3.org/2000/svg" viewBox="0 0 25 24" fill="currentColor"><path fill-rule="evenodd" clip-rule="evenodd" d="M11.7929 8.29289C12.1834 7.90237 12.8166 7.90237 13.2071 8.29289L19.2071 14.2929C19.5976 14.6834 19.5976 15.3166 19.2071 15.7071C18.8166 16.0976 18.1834 16.0976 17.7929 15.7071L12.5 10.4142L7.20711 15.7071C6.81658 16.0976 6.18342 16.0976 5.79289 15.7071C5.40237 15.3166 5.40237 14.6834 5.79289 14.2929L11.7929 8.29289Z"/></symbol>
	<symbol id="ChevronDown" xmlns="http://www.w3.org/2000/svg" viewBox="0 0 32 32" fill="currentColor"><path fill-rule="evenodd" clip-rule="evenodd" d="M7.05703 11.0572C7.57773 10.5365 8.42195 10.5365 8.94265 11.0572L15.9998 18.1144L23.057 11.0572C23.5777 10.5365 24.4219 10.5365 24.9426 11.0572C25.4633 11.5779 25.4633 12.4221 24.9426 12.9428L16.9426 20.9428C16.4219 21.4635 15.5777 21.4635 15.057 20.9428L7.05703 12.9428C6.53633 12.4221 6.53633 11.5779 7.05703 11.0572Z"/></symbol>	<symbol id="QuestionMarkCircle" xmlns="http://www.w3.org/2000/svg" fill="none" viewBox="0 0 24 24" stroke="currentColor"><path stroke-linecap="round" stroke-linejoin="round" d="M9.879 7.519c1.171-1.025 3.071-1.025 4.242 0 1.172 1.025 1.172 2.687 0 3.712-.203.179-.43.326-.67.442-.745.361-1.45.999-1.45 1.827v.75M21 12a9 9 0 11-18 0 9 9 0 0118 0zm-9 5.25h.008v.008H12v-.008z" /></symbol>
	<symbol id="ChevronLeftCustom" fill="none" viewBox="0 0 11 19"  xmlns="http://www.w3.org/2000/svg"><path d="M9.879 18.534a.842.842 0 0 0 0-1.194L2.037 9.5 9.88 1.66A.844.844 0 0 0 8.685.465L.247 8.903a.844.844 0 0 0 0 1.194l8.438 8.437a.844.844 0 0 0 1.194 0Z" fill="#164195"/></symbol>
	<symbol id="ChevronRightCustom" fill="none" viewBox="0 0 11 19"  xmlns="http://www.w3.org/2000/svg"><path d="M.528 18.534a.843.843 0 0 1 0-1.194L8.37 9.5.528 1.66A.844.844 0 1 1 1.722.465l8.438 8.437a.844.844 0 0 1 0 1.194l-8.438 8.437a.844.844 0 0 1-1.194 0" fill="#164195"/></symbol>
	<symbol id="User" fill="none" viewBox="0 0 15 15" xmlns="http://www.w3.org/2000/svg"><path d="M14.915 13.547c-1.097-1.897-2.788-3.258-4.762-3.902a5.188 5.188 0 1 0-5.306 0c-1.974.644-3.665 2.004-4.762 3.902a.576.576 0 1 0 .998.576c1.357-2.346 3.756-3.746 6.417-3.746 2.66 0 5.06 1.4 6.417 3.746a.577.577 0 1 0 .998-.576ZM3.465 5.189a4.035 4.035 0 1 1 8.07 0 4.035 4.035 0 0 1-8.07 0Z" fill="currentColor"/></symbol>
	<symbol id="ShoppingCart" fill="none" viewBox="0 0 25 22"  xmlns="http://www.w3.org/2000/svg"><path d="M8.273 21a.91.91 0 1 0 0-1.818.91.91 0 0 0 0 1.818ZM21 21a.91.91 0 1 0 0-1.818A.91.91 0 0 0 21 21ZM1 1h3.636l2.728 15.454h14.545" stroke="currentColor" stroke-linecap="round" stroke-linejoin="round"/><path d="M7.364 12.818h14.172a.455.455 0 0 0 .446-.365L23.62 4.27a.455.455 0 0 0-.446-.544H5.545" stroke="currentColor" stroke-linecap="round" stroke-linejoin="round"/></symbol>
	<symbol id="Bars3" xmlns="http://www.w3.org/2000/svg" viewBox="0 0 20 20" stroke="currentColor" fill="none"><path fill-rule="evenodd" clip-rule="evenodd" d="M2.5 5.00033C2.5 4.54009 2.8731 4.16699 3.33333 4.16699H16.6667C17.1269 4.16699 17.5 4.54009 17.5 5.00033C17.5 5.46056 17.1269 5.83366 16.6667 5.83366H3.33333C2.8731 5.83366 2.5 5.46056 2.5 5.00033ZM2.5 10.0003C2.5 9.54009 2.8731 9.16699 3.33333 9.16699H16.6667C17.1269 9.16699 17.5 9.54009 17.5 10.0003C17.5 10.4606 17.1269 10.8337 16.6667 10.8337H3.33333C2.8731 10.8337 2.5 10.4606 2.5 10.0003ZM2.5 15.0003C2.5 14.5401 2.8731 14.167 3.33333 14.167H16.6667C17.1269 14.167 17.5 14.5401 17.5 15.0003C17.5 15.4606 17.1269 15.8337 16.6667 15.8337H3.33333C2.8731 15.8337 2.5 15.4606 2.5 15.0003Z" fill="currentColor"/></symbol>
	<symbol id="Heart" fill="none" viewBox="0 0 25 22"  xmlns="http://www.w3.org/2000/svg"><path d="M18.08 0c-2.304 0-4.322.991-5.58 2.666C11.242.991 9.224 0 6.92 0A6.927 6.927 0 0 0 0 6.92c0 7.812 11.584 14.136 12.077 14.397a.893.893 0 0 0 .846 0C13.416 21.056 25 14.732 25 6.92A6.928 6.928 0 0 0 18.08 0ZM12.5 19.509C10.462 18.32 1.786 12.912 1.786 6.919A5.14 5.14 0 0 1 6.92 1.787c2.17 0 3.993 1.156 4.754 3.013a.893.893 0 0 0 1.652 0c.761-1.86 2.584-3.013 4.754-3.013a5.14 5.14 0 0 1 5.134 5.134c0 5.983-8.678 11.4-10.714 12.589Z" fill="currentColor"/></symbol>
	<symbol id="MagnifyingGlass" width="20" height="20" viewBox="0 0 20 20" fill="none" xmlns="http://www.w3.org/2000/svg"><path fill-rule="evenodd" clip-rule="evenodd" d="M8.33366 3.33366C5.57223 3.33366 3.33366 5.57223 3.33366 8.33366C3.33366 11.0951 5.57223 13.3337 8.33366 13.3337C11.0951 13.3337 13.3337 11.0951 13.3337 8.33366C13.3337 5.57223 11.0951 3.33366 8.33366 3.33366ZM1.66699 8.33366C1.66699 4.65176 4.65176 1.66699 8.33366 1.66699C12.0156 1.66699 15.0003 4.65176 15.0003 8.33366C15.0003 9.87425 14.4778 11.2928 13.6002 12.4217L18.0896 16.9111C18.415 17.2365 18.415 17.7641 18.0896 18.0896C17.7641 18.415 17.2365 18.415 16.9111 18.0896L12.4217 13.6002C11.2928 14.4778 9.87425 15.0003 8.33366 15.0003C4.65176 15.0003 1.66699 12.0156 1.66699 8.33366Z" fill="currentColor"/></symbol>
	<symbol id="XMark" xmlns="http://www.w3.org/2000/svg" fill="none" viewBox="0 0 24 24" stroke="currentColor"><path stroke-linecap="round" stroke-linejoin="round" d="M6 18L18 6M6 6l12 12" /></symbol>
	<symbol id="Plus" xmlns="http://www.w3.org/2000/svg" fill="none" viewBox="0 0 24 24" stroke="currentColor"><path stroke-linecap="round" stroke-linejoin="round" d="M12 4.5v15m7.5-7.5h-15" /></symbol>
	<symbol id="Minus" xmlns="http://www.w3.org/2000/svg" fill="none" viewBox="0 0 24 24" stroke="currentColor"><path stroke-linecap="round" stroke-linejoin="round" d="M19.5 12h-15" /></symbol>
	<symbol id="MapPin" xmlns="http://www.w3.org/2000/svg" fill="none" viewBox="0 0 24 24" stroke="currentColor"><path stroke-linecap="round" stroke-linejoin="round" d="M15 10.5a3 3 0 11-6 0 3 3 0 016 0z" /><path stroke-linecap="round" stroke-linejoin="round" d="M19.5 10.5c0 7.142-7.5 11.25-7.5 11.25S4.5 17.642 4.5 10.5a7.5 7.5 0 1115 0z" /></symbol>	
	<symbol id="Phone" xmlns="http://www.w3.org/2000/svg" fill="currentColor" viewBox="0 0 32 32"><path fill-rule="evenodd" clip-rule="evenodd" d="M6.66669 6.66667C6.31306 6.66667 5.97393 6.80714 5.72388 7.05719C5.4819 7.29917 5.34253 7.62459 5.33379 7.96582C5.64045 12.8244 7.70881 17.405 11.1519 20.8481C14.5951 24.2912 19.1756 26.3596 24.0342 26.6662C24.3754 26.6575 24.7008 26.5181 24.9428 26.2761C25.1929 26.0261 25.3334 25.687 25.3334 25.3333V20.9027L20.5591 18.993L19.1433 21.3527C18.7863 21.9477 18.0326 22.1694 17.4103 21.8625C14.2517 20.3047 11.6953 17.7483 10.1375 14.5898C9.83061 13.9674 10.0523 13.2137 10.6474 12.8567L13.007 11.4409L11.0973 6.66667H6.66669ZM3.83826 5.17157C4.58841 4.42143 5.60582 4 6.66669 4H12C12.5452 4 13.0355 4.33193 13.238 4.83815L15.9047 11.5048C16.1477 12.1124 15.9138 12.8066 15.3527 13.1433L13.1207 14.4825C14.2192 16.274 15.726 17.7809 17.5175 18.8793L18.8567 16.6473C19.1934 16.0862 19.8876 15.8523 20.4952 16.0954L27.1619 18.762C27.6681 18.9645 28 19.4548 28 20V25.3333C28 26.3942 27.5786 27.4116 26.8284 28.1618C26.0783 28.9119 25.0609 29.3333 24 29.3333C23.973 29.3333 23.9461 29.3325 23.9191 29.3309C18.3931 28.9951 13.181 26.6484 9.26632 22.7337C5.35161 18.819 3.00496 13.6069 2.66914 8.08088C2.66751 8.05395 2.66669 8.02698 2.66669 8C2.66669 6.93913 3.08811 5.92172 3.83826 5.17157Z" /></symbol>
	<symbol id="Elos" xmlns="http://www.w3.org/2000/svg" viewBox="0 0 40 14" stroke="currentColor" fill="none"><path d="M6.57655 3.09309C6.98496 2.95495 7.4234 2.88288 7.87985 2.88288C9.87385 2.88288 11.5375 4.3003 11.9159 6.18018L14.7387 5.6036C14.0901 2.40841 11.2672 0 7.87985 0C7.10508 0 6.36033 0.126126 5.66364 0.36036L6.57655 3.09309Z" fill="currentColor"/><path d="M3.24323 12.2463L5.15314 10.0841C4.30029 9.32733 3.76576 8.22823 3.76576 6.997C3.76576 5.77178 4.30029 4.66667 5.15314 3.91592L3.24323 1.75977C1.79579 3.04505 0.882874 4.91292 0.882874 7.00301C0.882874 9.08709 1.79579 10.961 3.24323 12.2463Z" fill="currentColor"/><path d="M11.9159 7.82617C11.5315 9.70605 9.87387 11.1175 7.87988 11.1175C7.42342 11.1175 6.98498 11.0454 6.57057 10.9073L5.65765 13.64C6.35435 13.8742 7.1051 14.0003 7.87988 14.0003C11.2673 14.0003 14.0901 11.5979 14.7387 8.40275L11.9159 7.82617Z" fill="currentColor"/><path d="M24.1441 9.75962C23.6757 10.2161 23.045 10.4924 22.3484 10.4803C21.8679 10.4743 21.4234 10.3302 21.0511 10.0899L20.1141 11.5794C20.7568 11.9818 21.5075 12.2221 22.3243 12.2341C23.5075 12.2521 24.5886 11.7836 25.3754 11.0209L24.1441 9.75962ZM22.4505 3.68755C20.0961 3.65151 18.1502 5.5374 18.1141 7.89175C18.1021 8.77463 18.3544 9.60346 18.8048 10.2881L26.5405 6.97884C26.1081 5.12298 24.4505 3.72358 22.4505 3.68755ZM19.8859 8.22809C19.8739 8.13199 19.8679 8.02989 19.8679 7.92779C19.8919 6.5404 21.033 5.42929 22.4204 5.45331C23.1772 5.46532 23.8499 5.80767 24.3003 6.34821L19.8859 8.22809ZM28.973 1.76562V10.0119L30.4024 10.6065L29.7237 12.2341L28.3063 11.6455C27.988 11.5074 27.7718 11.2972 27.6096 11.0569C27.4535 10.8167 27.3333 10.4803 27.3333 10.0359V1.76562H28.973Z" fill="currentColor"/><path d="M34.1321 5.57925C34.3844 5.49516 34.6487 5.45312 34.9309 5.45312C36.1502 5.45312 37.1592 6.31798 37.3934 7.46513L39.1171 7.11078C38.7207 5.15882 36.997 3.69336 34.9309 3.69336C34.4565 3.69336 34 3.77144 33.5796 3.90958L34.1321 5.57925ZM32.0961 11.1588L33.2613 9.84351C32.7387 9.38105 32.4144 8.70837 32.4144 7.95762C32.4144 7.20687 32.7448 6.5342 33.2613 6.07774L32.0961 4.76243C31.2132 5.54321 30.6547 6.69036 30.6547 7.96363C30.6547 9.2369 31.2132 10.378 32.0961 11.1588ZM37.3934 8.46813C37.1592 9.61528 36.1442 10.4801 34.9309 10.4801C34.6547 10.4801 34.3844 10.4321 34.1321 10.348L33.5736 12.0177C34 12.1618 34.4565 12.2399 34.9309 12.2399C36.997 12.2399 38.7207 10.7744 39.1171 8.82249L37.3934 8.46813Z" fill="currentColor"/></symbol>
	<symbol id="Mastercards" xmlns="http://www.w3.org/2000/svg" viewBox="0 0 26 20" fill="none" stroke="currentColor"><g clip-path="url(#clip0_81_156)"><path d="M4.77191 19.9552V18.6263C4.77191 18.1167 4.46174 17.7846 3.95265 17.7846C3.68527 17.7846 3.39918 17.8734 3.19971 18.159C3.04463 17.9151 2.82538 17.7846 2.49116 17.7846C2.36689 17.7793 2.24323 17.8048 2.13124 17.8589C2.01926 17.913 1.92244 17.9941 1.84944 18.0948V17.8274H1.42859V19.9536H1.84944V18.737C1.84944 18.3627 2.07083 18.1836 2.381 18.1836C2.69116 18.1836 2.86816 18.383 2.86816 18.737V19.9552H3.28902V18.737C3.28902 18.3627 3.51041 18.1836 3.82057 18.1836C4.13073 18.1836 4.30773 18.383 4.30773 18.737V19.9552H4.77191ZM11.6821 17.8509H10.9067V17.2092H10.4869V17.8509H10.0441V18.2253H10.4869V19.2242C10.4869 19.7114 10.6639 19.9996 11.1954 19.9996C11.3968 19.9954 11.5941 19.9422 11.7703 19.8445L11.6371 19.4702C11.5177 19.5449 11.3791 19.5833 11.2382 19.5809C11.0168 19.5809 10.9061 19.4477 10.9061 19.2263V18.2082H11.6815V17.8536L11.6821 17.8509ZM15.6243 17.7846C15.5097 17.7821 15.3964 17.8093 15.2954 17.8637C15.1945 17.918 15.1093 17.9977 15.0484 18.0948V17.8274H14.6275V19.9536H15.0484V18.7595C15.0484 18.405 15.2254 18.1836 15.5136 18.1836C15.6109 18.1875 15.7074 18.2024 15.8013 18.2279L15.9345 17.829C15.8329 17.8034 15.729 17.7885 15.6243 17.7846ZM9.66656 18.006C9.44517 17.8509 9.13501 17.7846 8.80292 17.7846C8.27137 17.7846 7.93928 18.0285 7.93928 18.4493C7.93928 18.8039 8.18314 19.0028 8.64784 19.0697L8.86923 19.0916C9.11308 19.136 9.26816 19.2247 9.26816 19.3354C9.26816 19.4905 9.09116 19.6028 8.75854 19.6028C8.50456 19.608 8.2558 19.5303 8.04998 19.3814L7.82859 19.7135C8.13875 19.9349 8.51522 19.9809 8.73768 19.9809C9.358 19.9809 9.69009 19.6932 9.69009 19.2943C9.69009 18.9199 9.42271 18.7408 8.95907 18.6739L8.73768 18.652C8.53822 18.6301 8.36335 18.5632 8.36335 18.4306C8.36335 18.2755 8.54036 18.1632 8.78421 18.1632C9.05159 18.1632 9.31576 18.2739 9.44891 18.3402L9.66656 18.006ZM16.0896 18.8921C16.0896 19.5338 16.5104 19.9996 17.197 19.9996C17.5072 19.9996 17.7286 19.9333 17.95 19.7558L17.7286 19.4237C17.5718 19.5506 17.3768 19.6209 17.1751 19.6231C16.8008 19.6231 16.5104 19.3354 16.5104 18.9146C16.5104 18.4937 16.797 18.2082 17.1751 18.2082C17.3768 18.2104 17.5718 18.2807 17.7286 18.4076L17.95 18.0755C17.7286 17.8985 17.5072 17.8317 17.197 17.8317C16.5323 17.7873 16.0896 18.2525 16.0896 18.8948V18.8921ZM13.1216 17.7846C12.5013 17.7846 12.0805 18.2274 12.0805 18.8921C12.0805 19.5568 12.5232 19.9996 13.1655 19.9996C13.4779 20.0062 13.7831 19.9046 14.0291 19.7119L13.8077 19.4017C13.6298 19.5396 13.4125 19.6172 13.1874 19.6231C12.8997 19.6231 12.5896 19.4461 12.5457 19.0697H14.1184V18.8927C14.1184 18.2279 13.7195 17.7852 13.1216 17.7852V17.7846ZM13.0997 18.1836C13.4099 18.1836 13.6313 18.383 13.6532 18.7151H12.5019C12.5682 18.405 12.7692 18.1836 13.0997 18.1836ZM7.36335 18.8921V17.829H6.94249V18.0964C6.78741 17.8969 6.56816 17.7862 6.25586 17.7862C5.658 17.7862 5.21469 18.2515 5.21469 18.8937C5.21469 19.536 5.65747 20.0012 6.25586 20.0012C6.56602 20.0012 6.78741 19.8905 6.94249 19.691V19.9584H7.36335V18.8921ZM5.658 18.8921C5.658 18.4932 5.90185 18.1836 6.32271 18.1836C6.72164 18.1836 6.96442 18.4937 6.96442 18.8921C6.96442 19.313 6.69704 19.6007 6.32271 19.6007C5.90185 19.6226 5.658 19.2905 5.658 18.8921ZM22.0259 17.7846C21.9113 17.7821 21.798 17.8093 21.697 17.8637C21.5961 17.918 21.5109 17.9977 21.45 18.0948V17.8274H21.0291V19.9536H21.4495V18.7595C21.4495 18.405 21.6265 18.1836 21.9147 18.1836C22.012 18.1875 22.1085 18.2024 22.2024 18.2279L22.3355 17.829C22.234 17.8034 22.13 17.7885 22.0254 17.7846H22.0259ZM20.3869 18.8921V17.829H19.966V18.0964C19.8109 17.8969 19.5917 17.7862 19.2794 17.7862C18.6815 17.7862 18.2382 18.2515 18.2382 18.8937C18.2382 19.536 18.681 20.0012 19.2794 20.0012C19.5896 20.0012 19.8109 19.8905 19.966 19.691V19.9584H20.3869V18.8921ZM18.6815 18.8921C18.6815 18.4932 18.9254 18.1836 19.3462 18.1836C19.7452 18.1836 19.988 18.4937 19.988 18.8921C19.988 19.313 19.7206 19.6007 19.3462 19.6007C18.9254 19.6226 18.6815 19.2905 18.6815 18.8921ZM24.6618 18.8921V16.9873H24.2409V18.0948C24.0858 17.8953 23.8666 17.7846 23.5543 17.7846C22.9564 17.7846 22.5131 18.2499 22.5131 18.8921C22.5131 19.5344 22.9559 19.9996 23.5543 19.9996C23.8644 19.9996 24.0858 19.8889 24.2409 19.6894V19.9568H24.6618V18.8921ZM22.9564 18.8921C22.9564 18.4932 23.2003 18.1836 23.6211 18.1836C24.02 18.1836 24.2628 18.4937 24.2628 18.8921C24.2628 19.313 23.9954 19.6007 23.6211 19.6007C23.1997 19.6231 22.9559 19.291 22.9559 18.8921H22.9564Z" fill="currentColor"/><path d="M9.95478 7.97327C9.95505 6.76731 10.2281 5.57704 10.7536 4.49159C11.279 3.40613 12.0433 2.45361 12.989 1.70535C11.8128 0.780601 10.4002 0.205442 8.9126 0.045623C7.42499 -0.114196 5.92242 0.147775 4.57667 0.801588C3.23091 1.4554 2.09627 2.47468 1.30244 3.74289C0.508619 5.01111 0.0876465 6.47709 0.0876465 7.97327C0.0876465 9.46944 0.508619 10.9354 1.30244 12.2036C2.09627 13.4719 3.23091 14.4911 4.57667 15.1449C5.92242 15.7988 7.42499 16.0607 8.9126 15.9009C10.4002 15.7411 11.8128 15.1659 12.989 14.2412C12.0433 13.4929 11.279 12.5404 10.7536 11.4549C10.2281 10.3695 9.95505 9.17922 9.95478 7.97327Z" fill="currentColor"/><path d="M25.9019 7.97297C25.9029 9.46805 25.4832 10.9333 24.6907 12.201C23.8982 13.4688 22.7648 14.4879 21.4203 15.1418C20.0758 15.7957 18.5744 16.0579 17.0879 15.8986C15.6013 15.7393 14.1896 15.1648 13.0142 14.2409C13.9601 13.4928 14.7245 12.5403 15.25 11.4548C15.7755 10.3693 16.0485 9.17898 16.0485 7.97297C16.0485 6.76696 15.7755 5.5766 15.25 4.4911C14.7245 3.4056 13.9601 2.45312 13.0142 1.70506C14.1896 0.781104 15.6013 0.20662 17.0879 0.0473072C18.5744 -0.112005 20.0758 0.150287 21.4203 0.804186C22.7648 1.45808 23.8982 2.47719 24.6907 3.74493C25.4832 5.01268 25.9029 6.47789 25.9019 7.97297Z" fill="currentColor" fill-opacity="0.4"/><path fill-rule="evenodd" clip-rule="evenodd" d="M13.0141 1.70508H12.989C12.0432 2.45333 11.279 3.40585 10.7536 4.49131C10.2281 5.57677 9.95504 6.76704 9.95477 7.97299C9.95504 9.17894 10.2281 10.3692 10.7536 11.4547C11.279 12.5401 12.0433 13.4926 12.989 14.2409H13.0141C13.0141 14.2409 13.0141 14.2409 13.0141 14.2409C13.9601 13.4928 14.7245 12.5404 15.25 11.4549C15.7755 10.3694 16.0484 9.17899 16.0484 7.97299C16.0484 6.76698 15.7755 5.57661 15.25 4.49111C14.7245 3.40561 13.9601 2.45314 13.0141 1.70508Z" fill="currentColor" fill-opacity="0.6"/></g><defs><clipPath id="clip0_81_156"><rect width="25.8027" height="20" fill="white" transform="translate(0.0986328)"/></clipPath></defs></symbol>
	<symbol id="Visas" xmlns="http://www.w3.org/2000/svg" viewBox="0 0 40 12" fill="none" stroke="currentColor"><path d="M14.2514 11.8628L16.2325 0.237305H19.4012L17.4187 11.8628H14.2514Z" fill="currentColor"/><path d="M28.8667 0.488266C28.2389 0.252744 27.2552 0 26.0267 0C22.8956 0 20.6902 1.57674 20.6714 3.83653C20.6537 5.50698 22.2459 6.43886 23.4479 6.99494C24.6813 7.56486 25.0959 7.92824 25.09 8.437C25.0821 9.21631 24.105 9.57221 23.1942 9.57221C21.926 9.57221 21.2522 9.39601 20.2115 8.96208L19.8031 8.77728L19.3585 11.3797C20.0986 11.7043 21.4671 11.9854 22.8882 12C26.2191 12 28.3815 10.4413 28.4061 8.02807C28.4179 6.70556 27.5737 5.69921 25.7455 4.86948C24.638 4.33169 23.9597 3.97282 23.9669 3.42826C23.9669 2.94504 24.541 2.42833 25.7816 2.42833C26.8177 2.41223 27.5684 2.6382 28.1533 2.87372L28.4372 3.00787L28.8667 0.488266Z" fill="currentColor"/><path d="M37.0208 0.237305H34.5723C33.8138 0.237305 33.2461 0.444322 32.913 1.20137L28.2071 11.8552H31.5345C31.5345 11.8552 32.0785 10.4228 32.2015 10.1082C32.5651 10.1082 35.7976 10.1132 36.2597 10.1132C36.3545 10.5202 36.6452 11.8552 36.6452 11.8552H39.5855L37.0208 0.237305ZM33.136 7.74409C33.3981 7.07428 34.3985 4.49428 34.3985 4.49428C34.3798 4.52522 34.6587 3.82121 34.8186 3.38473L35.0328 4.38703C35.0328 4.38703 35.6395 7.16205 35.7663 7.74391H33.136V7.74409Z" fill="currentColor"/><path d="M0.45503 0.237305L0.414551 0.479138C1.66716 0.782359 2.78593 1.22123 3.76542 1.76717L6.57706 11.8441L9.92966 11.8404L14.9183 0.237305H11.5615L8.45929 8.16502L8.12885 6.55384C8.11337 6.50406 8.09654 6.4542 8.07932 6.40422L7.00087 1.21879C6.80912 0.482646 6.25282 0.262959 5.56461 0.237305H0.45503Z" fill="currentColor"/></symbol>		
	<symbol id="Pixs" viewBox="0 0 512 512" xmlns="http://www.w3.org/2000/svg" fill="none" stroke="currentColor"> <defs/> <g fill="currentColor" fill-rule="evenodd"> <path d="M393.072 391.897c-20.082 0-38.969-7.81-53.176-22.02l-77.069-77.067c-5.375-5.375-14.773-5.395-20.17 0l-76.784 76.786c-14.209 14.207-33.095 22.019-53.179 22.019h-9.247l97.521 97.52c30.375 30.375 79.614 30.375 109.988 0l97.239-97.238h-15.123zm-105.049 74.327c-8.55 8.53-19.93 13.25-32.05 13.25h-.02c-12.12 0-23.522-4.721-32.05-13.25l-56.855-56.855c7.875-4.613 15.165-10.248 21.758-16.84l63.948-63.948 64.23 64.23c7.637 7.66 16.188 14.013 25.478 18.952l-54.439 54.46zM310.958 22.78c-30.374-30.374-79.613-30.374-109.988 0l-97.52 97.52h9.247c20.082 0 38.97 7.834 53.178 22.02l76.784 76.785c5.57 5.592 14.622 5.57 20.17 0l77.069-77.068c14.207-14.187 33.094-22.02 53.176-22.02h15.123l-97.239-97.237zm6.028 96.346l-64.23 64.23-63.97-63.97c-6.593-6.592-13.86-12.206-21.736-16.818l56.853-56.877c17.69-17.645 46.476-17.668 64.121 0l54.44 54.461c-9.292 4.961-17.842 11.315-25.479 18.974h.001z"/> <path d="M489.149 200.97l-58.379-58.377h-37.706c-13.838 0-27.394 5.635-37.185 15.426l-77.068 77.069c-7.202 7.18-16.623 10.77-26.067 10.77-9.443 0-18.885-3.59-26.066-10.77l-76.785-76.785c-9.792-9.814-23.346-15.427-37.207-15.427h-31.81L22.78 200.97c-30.374 30.375-30.374 79.614 0 109.988l58.095 58.074 31.81.021c13.86 0 27.416-5.635 37.208-15.426l76.784-76.764c13.925-13.947 38.208-13.924 52.133-.02l77.068 77.066c9.791 9.792 23.346 15.405 37.185 15.405h37.706l58.379-58.356c30.374-30.374 30.374-79.613 0-109.988zm-362.19 129.724c-3.763 3.786-8.942 5.917-14.273 5.917H94.302l-48.59-48.564c-17.689-17.69-17.689-46.476 0-64.143L94.3 175.296h18.385c5.331 0 10.51 2.154 14.295 5.918l74.74 74.74-74.761 74.74zm339.257-42.647l-48.848 48.87h-24.305c-5.309 0-10.508-2.155-14.251-5.92l-75.023-75.043 75.023-75.023c3.743-3.764 8.942-5.918 14.252-5.918h24.304l48.847 48.891c8.573 8.551 13.273 19.93 13.273 32.05 0 12.141-4.7 23.52-13.273 32.093z"/> </g> </symbol>
	<symbol fill="none" viewBox="0 0 20 20" id="Instagram" xmlns="http://www.w3.org/2000/svg">
		<path d="M10 7a3 3 0 1 0 0 6 3 3 0 0 0 0-6Zm0-2a5 5 0 1 1 0 10 5 5 0 0 1 0-10Zm6.5-.25a1.25 1.25 0 1 1-2.5 0 1.25 1.25 0 0 1 2.5 0ZM10 2c-2.474 0-2.878.007-4.029.058-.784.037-1.31.142-1.798.332-.408.15-.778.39-1.08.703a2.89 2.89 0 0 0-.704 1.08c-.19.49-.295 1.015-.331 1.798-.052 1.104-.059 1.49-.059 4.029 0 2.475.007 2.878.058 4.029.037.783.142 1.31.331 1.797.17.435.37.748.702 1.08.337.336.65.537 1.08.703.494.191 1.02.297 1.8.333 1.104.052 1.49.058 4.029.058 2.475 0 2.878-.007 4.029-.058.782-.037 1.308-.142 1.797-.331a2.91 2.91 0 0 0 1.08-.703c.337-.336.538-.649.704-1.08.19-.492.296-1.018.332-1.8.052-1.103.058-1.49.058-4.028 0-2.474-.007-2.878-.058-4.029-.037-.782-.143-1.31-.332-1.798a2.912 2.912 0 0 0-.703-1.08 2.884 2.884 0 0 0-1.08-.704c-.49-.19-1.016-.295-1.798-.331C12.925 2.006 12.54 2 10 2Zm0-2c2.717 0 3.056.01 4.123.06 1.064.05 1.79.217 2.427.465.66.254 1.216.598 1.772 1.153.509.5.902 1.105 1.153 1.772.247.637.415 1.363.465 2.428.047 1.066.06 1.405.06 4.122 0 2.717-.01 3.056-.06 4.122-.05 1.065-.218 1.79-.465 2.428a4.884 4.884 0 0 1-1.153 1.772c-.5.508-1.105.902-1.772 1.153-.637.247-1.363.415-2.427.465-1.067.047-1.406.06-4.123.06-2.717 0-3.056-.01-4.123-.06-1.064-.05-1.789-.218-2.427-.465a4.89 4.89 0 0 1-1.772-1.153A4.904 4.904 0 0 1 .525 16.55C.277 15.913.11 15.187.06 14.122.012 13.056 0 12.717 0 10c0-2.717.01-3.056.06-4.122.05-1.065.217-1.79.465-2.428a4.88 4.88 0 0 1 1.153-1.772A4.897 4.897 0 0 1 3.45.525C4.087.277 4.812.11 5.877.06 6.944.013 7.283 0 10 0Z" fill="currentColor"/>
	</symbol>
	<symbol fill="none" viewBox="0 0 15 15" id="CheckSelection" xmlns="http://www.w3.org/2000/svg">
		<path fill-rule="evenodd" clip-rule="evenodd" d="M7.5 15a7.5 7.5 0 1 0 0-15 7.5 7.5 0 0 0 0 15Zm-.193-4.467 4.166-5-1.28-1.066L6.61 8.766 4.756 6.91 3.577 8.089l2.5 2.5.646.645.584-.7Z" fill="currentColor"/>
	</symbol>
	<symbol id="World" fill="none" viewBox="0 0 61 61"  xmlns="http://www.w3.org/2000/svg"><path d="M46.394 30.5a36.07 36.07 0 0 0-.8-7.445h6.7a22.885 22.885 0 0 0-1.247-2.977h-6.235a36.704 36.704 0 0 0-5.379-10.925 22.892 22.892 0 0 0-4.745-1.414 33.183 33.183 0 0 1 7.24 12.264H31.895V7.423h-2.792v12.599h-10.03A33.184 33.184 0 0 1 26.33 7.739a22.855 22.855 0 0 0-4.727 1.395 36.701 36.701 0 0 0-5.416 10.888H9.916c-.494.98-.917 1.993-1.265 3.034h6.755a36.07 36.07 0 0 0-.8 7.444 36.61 36.61 0 0 0 .93 8.133H8.949a22.96 22.96 0 0 0 1.378 3.034h6.01a35.958 35.958 0 0 0 5.007 9.975 22.86 22.86 0 0 0 4.858 1.47 33.336 33.336 0 0 1-6.868-11.445h9.79v11.8h2.791v-11.8h9.753a33.315 33.315 0 0 1-6.886 11.445 22.862 22.862 0 0 0 4.876-1.507 35.959 35.959 0 0 0 5.006-9.938h5.956c.53-.959.99-1.954 1.377-2.978H45.39a36.61 36.61 0 0 0 1.005-8.189Zm-17.29 8.133H18.421A32.923 32.923 0 0 1 18.254 23h10.85v15.633Zm13.475 0H31.896V23.055h10.85a33.88 33.88 0 0 1 .782 7.445 33.71 33.71 0 0 1-.95 8.133Z" fill="currentColor"/><path d="M30.5.722a29.777 29.777 0 1 0 0 59.555 29.777 29.777 0 0 0 0-59.555Zm0 55.834a26.056 26.056 0 1 1 0-52.112 26.056 26.056 0 0 1 0 52.112Z" fill="currentColor"/></symbol>
	<symbol id="Truck" fill="none" viewBox="0 0 76 53" xmlns="http://www.w3.org/2000/svg"><path d="M75.862 19.251 71.353 7.98a4.487 4.487 0 0 0-4.186-2.834H55.39V1.932A1.932 1.932 0 0 0 53.458 0H4.508A4.508 4.508 0 0 0 0 4.508v36.068a4.508 4.508 0 0 0 4.508 4.509h5.99a9.661 9.661 0 0 0 18.936 0h17.132a9.661 9.661 0 0 0 18.936 0h5.99A4.509 4.509 0 0 0 76 40.576v-20.61a1.93 1.93 0 0 0-.138-.715ZM55.39 9.017h11.78a.644.644 0 0 1 .599.406l3.446 8.61H55.39V9.018ZM3.864 4.508a.644.644 0 0 1 .644-.644h47.017v21.899H3.865V4.508ZM19.966 48.95a5.796 5.796 0 1 1 0-11.592 5.796 5.796 0 0 1 0 11.592Zm26.6-7.729H29.434a9.661 9.661 0 0 0-18.936 0h-5.99a.644.644 0 0 1-.644-.644v-10.95h47.661v4.985a9.694 9.694 0 0 0-4.959 6.608Zm9.468 7.73a5.796 5.796 0 1 1 0-11.593 5.796 5.796 0 0 1 0 11.592Zm16.102-8.374a.644.644 0 0 1-.644.644h-5.99a9.677 9.677 0 0 0-9.468-7.728c-.216 0-.432 0-.644.022V21.898h16.746v18.678Z" fill="currentColor"/></symbol>
	<symbol id="Discount" fill="none" viewBox="0 0 63 63" xmlns="http://www.w3.org/2000/svg"><path d="M20.962 23.069h4.214M37.82 39.927h4.215m0-18.965L20.962 42.034m7.59-38.815-4.758 4.75a4.164 4.164 0 0 1-2.942 1.222H13.36a4.164 4.164 0 0 0-4.164 4.164v7.493a4.164 4.164 0 0 1-1.222 2.942L3.22 28.556a4.164 4.164 0 0 0 0 5.888l4.762 4.758A4.159 4.159 0 0 1 9.2 42.144v7.493a4.162 4.162 0 0 0 4.164 4.164h7.494c1.104 0 2.162.438 2.941 1.222l4.762 4.758a4.164 4.164 0 0 0 5.888 0l4.758-4.762a4.164 4.164 0 0 1 2.942-1.218h7.493a4.164 4.164 0 0 0 4.164-4.164v-7.493c0-1.105.438-2.163 1.222-2.942l4.758-4.762a4.164 4.164 0 0 0 0-5.888l-4.762-4.758a4.164 4.164 0 0 1-1.218-2.942V13.36a4.164 4.164 0 0 0-4.164-4.164h-7.493a4.164 4.164 0 0 1-2.942-1.222L34.44 3.219a4.164 4.164 0 0 0-5.888 0Z" stroke="currentColor" stroke-width="4"/></symbol>
	<symbol id="Return" xmlns="http://www.w3.org/2000/svg" viewBox="0 0 34 30" stroke="currentColor" fill="none"><path d="M32 6.66699H2M32 6.66699L27 11.667M32 6.66699L27 1.66699M7 28.3337L2 23.3337M2 23.3337L7 18.3337M2 23.3337H32" stroke-linecap="round" stroke-linejoin="round"/></symbol>			
	<symbol fill="none" viewBox="0 0 62 50" id="CreditCard" xmlns="http://www.w3.org/2000/svg"><path fill-rule="evenodd" clip-rule="evenodd" d="M24.841 0H36.59C41.84 0 46 0 49.255.437c3.349.452 6.06 1.4 8.2 3.537 2.137 2.14 3.086 4.852 3.537 8.2.258 1.923.363 4.16.406 6.752.037.217.041.439.012.657.02 1.617.02 3.366.02 5.257v.32c0 5.251 0 9.411-.438 12.666-.451 3.348-1.4 6.06-3.537 8.2-2.14 2.137-4.851 3.085-8.2 3.537C45.998 50 41.841 50 36.59 50H24.84c-5.251 0-9.411 0-12.666-.437-3.348-.452-6.06-1.4-8.2-3.537-2.137-2.14-3.085-4.852-3.537-8.2C.001 34.569.001 30.41.001 25.16v-.32c0-1.891 0-3.64.02-5.257a2.16 2.16 0 0 1 .009-.657c.045-2.592.151-4.829.408-6.752.452-3.348 1.4-6.06 3.537-8.2C6.115 1.837 8.827.89 12.175.437 15.432 0 19.59 0 24.841 0ZM4.292 21.429c-.005 1.108-.005 2.297-.005 3.571 0 5.449.005 9.32.4 12.257.385 2.872 1.111 4.529 2.32 5.737 1.208 1.209 2.865 1.935 5.74 2.32 2.937.395 6.805.4 12.254.4H36.43c5.448 0 9.32-.005 12.257-.4 2.871-.385 4.528-1.111 5.737-2.32 1.208-1.208 1.934-2.865 2.32-5.74.394-2.937.4-6.805.4-12.254 0-1.274 0-2.463-.006-3.571H4.292Zm52.778-4.286H4.36c.057-1.677.154-3.126.326-4.4.385-2.872 1.111-4.529 2.32-5.737 1.208-1.209 2.865-1.935 5.74-2.32 2.937-.395 6.805-.4 12.254-.4h11.43c5.448 0 9.32.005 12.257.4 2.871.385 4.528 1.111 5.737 2.32 1.208 1.208 1.934 2.865 2.32 5.74.171 1.271.268 2.72.326 4.397ZM11.43 36.429a2.143 2.143 0 0 1 2.142-2.143h11.429a2.143 2.143 0 0 1 0 4.285H13.572a2.143 2.143 0 0 1-2.142-2.142Zm18.571 0a2.143 2.143 0 0 1 2.143-2.143h4.286a2.143 2.143 0 0 1 0 4.285h-4.286A2.143 2.143 0 0 1 30 36.43Z" fill="currentColor"/></symbol>
	<symbol id="Deco" xmlns="http://www.w3.org/2000/svg" viewBox="0 0 58 20" stroke="currentColor" fill="none"><path d="M49.5359 16.9432C47.3666 16.9432 46.9948 14.8019 47.6797 12.7178C48.2221 11.0615 49.5066 9.31991 51.4201 9.31991C53.676 9.31991 53.9039 11.6038 53.247 13.6026C52.6753 15.3162 51.3908 16.9432 49.5359 16.9432ZM48.879 19.9973C52.6473 19.9973 56.0159 17.9133 57.3578 14.1449C58.7569 10.1767 57.1859 6.2085 52.0477 6.2085C47.9369 6.2085 44.7962 8.77758 43.5969 12.1755C42.2551 16.0011 43.7115 19.9973 48.879 19.9973ZM36.3747 19.9973C37.8591 19.9973 39.3729 19.6829 40.4282 19.2271C40.8 18.1998 40.828 17.2004 40.5428 16.201C39.8006 16.4862 38.7732 16.7727 37.7165 16.7727C34.861 16.7727 34.6051 14.6606 35.2048 12.8617C35.8617 10.9496 37.574 9.40786 40.287 9.40786C41.0012 9.40786 41.6861 9.52246 42.1138 9.77963C42.856 8.78025 43.2838 7.78086 43.3704 6.7535C42.7428 6.46834 41.6861 6.21117 40.3163 6.21117C35.863 6.21117 32.3505 8.80956 31.0953 12.406C29.896 15.8039 30.8101 20 36.3774 20L36.3747 19.9973ZM21.0442 11.8037C21.8143 10.0901 23.0136 9.09206 24.5846 9.09206C25.9838 9.09206 26.2116 9.86225 25.9838 10.4619C25.6413 11.2894 24.47 11.8037 21.0442 11.8037ZM22.2714 19.9973C23.7278 19.9973 25.7826 19.7122 27.4962 18.8554C27.7813 17.9133 27.7534 16.9712 27.4389 15.9998C26.3542 16.5421 24.8405 16.8566 23.4707 16.8566C21.4439 16.8566 20.3299 16.1997 20.3592 14.5447C25.8972 14.6873 28.7807 13.6879 29.7228 11.2334C30.6649 8.7496 29.0379 6.2085 25.1829 6.2085C21.0721 6.2085 18.046 9.14935 16.932 12.3181C15.7621 15.6867 16.5043 19.9973 22.2701 19.9973H22.2714ZM5.72293 19.9973C9.52059 19.9973 11.6806 18.2557 14.1924 12.9177C15.5622 9.97684 16.7335 7.09329 18.0753 4.23905L19.6743 4.7534C20.1021 4.89598 20.3313 4.6388 20.1314 4.23905L18.1899 0.270827C18.0473 -0.0143302 17.7329 -0.0436454 17.533 0.0429678L12.708 1.86984C12.3082 2.01242 12.3362 2.38419 12.7359 2.49745L14.1631 2.95451C12.9931 5.6102 11.5367 9.60641 10.3654 12.1182C9.05155 14.9165 8.39595 16.8859 6.16933 16.8859C3.9427 16.8859 3.57093 15.1443 4.51301 12.6605C5.59768 9.77697 7.42455 8.92016 9.5086 9.51979C10.0802 8.72028 10.508 7.52103 10.6785 6.43636C10.0789 6.26447 9.36469 6.2085 8.76639 6.2085C5.3978 6.2085 2.05719 7.95009 0.687373 11.6038C-1.0822 16.3143 0.554122 19.9973 5.7216 19.9973H5.72293Z" fill="currentColor"/></symbol>
	<symbol id="Discord" xmlns="http://www.w3.org/2000/svg" viewBox="0 0 32 32" fill="currentColor"><path fill-rule="evenodd" clip-rule="evenodd" d="M10.1144 14.1144C10.6145 13.6143 11.2928 13.3333 12 13.3333C12.7072 13.3333 13.3855 13.6143 13.8856 14.1144C14.3857 14.6145 14.6667 15.2928 14.6667 16C14.6667 16.7072 14.3857 17.3855 13.8856 17.8856C13.3855 18.3857 12.7072 18.6667 12 18.6667C11.2928 18.6667 10.6145 18.3857 10.1144 17.8856C9.61429 17.3855 9.33333 16.7072 9.33333 16C9.33333 15.2928 9.61429 14.6145 10.1144 14.1144Z"/><path fill-rule="evenodd" clip-rule="evenodd" d="M18.1144 14.1144C18.6145 13.6143 19.2928 13.3333 20 13.3333C20.7072 13.3333 21.3855 13.6143 21.8856 14.1144C22.3857 14.6145 22.6667 15.2928 22.6667 16C22.6667 16.7072 22.3857 17.3855 21.8856 17.8856C21.3855 18.3857 20.7072 18.6667 20 18.6667C19.2928 18.6667 18.6145 18.3857 18.1144 17.8856C17.6143 17.3855 17.3333 16.7072 17.3333 16C17.3333 15.2928 17.6143 14.6145 18.1144 14.1144Z"/><path fill-rule="evenodd" clip-rule="evenodd" d="M18.81 4.73186C19.0601 4.23712 19.5902 3.94872 20.1414 4.00752C22.2331 4.23063 24.551 4.69893 26.7621 6.2393C26.9912 6.39888 27.1644 6.62634 27.2573 6.8896C28.6195 10.7494 29.3689 14.129 29.6593 16.8589C29.9443 19.5368 29.805 21.7447 29.2379 23.162C29.2242 23.1964 29.209 23.2302 29.1924 23.2633C28.6969 24.2536 27.9474 25.3864 27.0094 26.2923C26.091 27.1791 24.8302 28 23.3333 28C22.8608 28 22.4898 27.788 22.3107 27.6739C22.0915 27.5341 21.888 27.3604 21.7106 27.1896C21.352 26.8443 20.9848 26.3986 20.6577 25.9313C20.3289 25.4616 20.0134 24.9313 19.7748 24.4037C19.5498 23.9065 19.3333 23.2832 19.3333 22.6667C19.3333 21.9303 19.9303 21.3333 20.6667 21.3333C21.403 21.3333 22 21.9303 22 22.6667C22 22.7168 22.0335 22.9269 22.2044 23.3046C22.3616 23.652 22.5878 24.0384 22.8423 24.4021C23.0985 24.7681 23.3564 25.0724 23.5603 25.2687C23.5748 25.2827 23.5885 25.2956 23.6014 25.3075C24.0526 25.2232 24.5825 24.9288 25.157 24.374C25.8148 23.7388 26.3876 22.8958 26.7809 22.123C27.0917 21.2998 27.2731 19.6354 27.0077 17.1411C26.7526 14.7437 26.0994 11.7137 24.8888 8.19623C23.5851 7.37691 22.2091 6.99039 20.7657 6.77412L19.894 8.49881C19.6296 9.02184 19.0547 9.31093 18.4772 9.21123C16.8392 8.92847 15.1648 8.92847 13.5268 9.21123C12.9499 9.31082 12.3755 9.02244 12.1108 8.50029L11.2355 6.77394C9.79167 6.99018 8.41523 7.37668 7.11123 8.19624C5.90062 11.7137 5.24745 14.7437 4.99235 17.1411C4.72693 19.6354 4.90826 21.2998 5.21912 22.123C5.61239 22.8958 6.18517 23.7388 6.84303 24.374C7.4175 24.9288 7.94742 25.2232 8.39859 25.3075C8.41148 25.2956 8.4252 25.2827 8.43973 25.2687C8.64364 25.0724 8.90147 24.7681 9.15769 24.4021C9.41224 24.0384 9.63844 23.652 9.79561 23.3046C9.87377 23.1318 9.92828 22.9831 9.96188 22.8628C9.97844 22.8035 9.98841 22.7564 9.99405 22.7211C9.99682 22.7037 9.99835 22.6904 9.99917 22.681L9.99989 22.6703L9.99999 22.6676L10 22.6669C10 22.6669 10 22.6668 10 22.6668C10 22.6667 10 22.6667 10 22.6667C10 21.9303 10.597 21.3333 11.3333 21.3333C12.0697 21.3333 12.6667 21.9303 12.6667 22.6667C12.6667 23.2832 12.4502 23.9065 12.2252 24.4037C11.9866 24.9313 11.6711 25.4616 11.3423 25.9313C11.0152 26.3986 10.648 26.8443 10.2894 27.1896C10.112 27.3604 9.90854 27.5341 9.68929 27.6739C9.5102 27.788 9.13922 28 8.66667 28C7.16983 28 5.90902 27.1791 4.99064 26.2923C4.05257 25.3864 3.30313 24.2536 2.80761 23.2633C2.79103 23.2302 2.77584 23.1964 2.76208 23.162C2.19498 21.7447 2.05571 19.5368 2.34065 16.8589C2.63114 14.129 3.38048 10.7494 4.74267 6.8896C4.83558 6.62634 5.00878 6.39888 5.23785 6.2393C7.44901 4.69893 9.76691 4.23063 11.8586 4.00752C12.4092 3.94879 12.9388 4.2365 13.1892 4.73038L14.0574 6.44267C15.3492 6.29582 16.6535 6.29577 17.9454 6.44252L18.81 4.73186ZM8.25602 25.4251C8.23864 25.4362 8.24115 25.4323 8.26145 25.4215C8.25933 25.423 8.25752 25.4242 8.25602 25.4251ZM23.744 25.4251C23.7425 25.4242 23.7407 25.423 23.7386 25.4215C23.7589 25.4323 23.7614 25.4362 23.744 25.4251Z"/><path fill-rule="evenodd" clip-rule="evenodd" d="M8.0513 21.6337C8.2536 20.9257 8.99158 20.5157 9.69963 20.718C14.1269 21.9829 17.8731 21.9829 22.3004 20.718C23.0084 20.5157 23.7464 20.9257 23.9487 21.6337C24.151 22.3418 23.741 23.0797 23.033 23.282C18.1269 24.6838 13.8731 24.6838 8.96704 23.282C8.25899 23.0797 7.849 22.3418 8.0513 21.6337Z"/></symbol>
	<symbol id="Youtube" fill="none" viewBox="0 0 20 16"  xmlns="http://www.w3.org/2000/svg"><path fill-rule="evenodd" clip-rule="evenodd" d="M10 0c.855 0 1.732.022 2.582.058l1.004.048.961.057.9.061.822.064a3.802 3.802 0 0 1 3.494 3.423l.04.425.075.91C19.948 5.989 20 7.017 20 8c0 .983-.052 2.011-.122 2.954l-.075.91c-.013.146-.026.287-.04.425a3.802 3.802 0 0 1-3.495 3.423l-.82.063-.9.062-.962.057-1.004.048A61.58 61.58 0 0 1 10 16a61.58 61.58 0 0 1-2.582-.058l-1.004-.048-.961-.057-.9-.062-.822-.063a3.802 3.802 0 0 1-3.494-3.423l-.04-.425-.075-.91A40.662 40.662 0 0 1 0 8c0-.983.052-2.011.122-2.954l.075-.91c.013-.146.026-.287.04-.425A3.802 3.802 0 0 1 3.73.288l.821-.064.9-.061.962-.057L7.417.058C8.277.021 9.139.001 10 0ZM8 5.575v4.85c0 .462.5.75.9.52l4.2-2.425a.6.6 0 0 0 0-1.04L8.9 5.056a.6.6 0 0 0-.9.52v-.001Z" fill="currentColor"/></symbol>
	<symbol id="FilterList" xmlns="http://www.w3.org/2000/svg" viewBox="0 0 16 16" fill="none"><path d="M6.66667 12H9.33333V10.6667H6.66667V12ZM2 4V5.33333H14V4H2ZM4 8.66667H12V7.33333H4V8.66667Z" fill="currentColor"/></symbol>
	<symbol id="Trash" xmlns="http://www.w3.org/2000/svg" width="20" height="20" viewBox="0 0 20 20" fill="none"><path fill-rule="evenodd" clip-rule="evenodd" d="M7.15482 2.15483C7.46738 1.84227 7.89131 1.66667 8.33333 1.66667H11.6667C12.1087 1.66667 12.5326 1.84227 12.8452 2.15483C13.1577 2.46739 13.3333 2.89131 13.3333 3.33334V5H15.8236C15.8295 4.99994 15.8353 4.99994 15.8412 5H16.6667C17.1269 5 17.5 5.3731 17.5 5.83334C17.5 6.29357 17.1269 6.66667 16.6667 6.66667H16.6001L15.833 15.8715C15.8231 16.5207 15.5609 17.1413 15.1011 17.6011C14.6323 18.0699 13.9964 18.3333 13.3333 18.3333H6.66667C6.00362 18.3333 5.36774 18.0699 4.8989 17.6011C4.43906 17.1413 4.17685 16.5207 4.16696 15.8715L3.39989 6.66667H3.33333C2.8731 6.66667 2.5 6.29357 2.5 5.83334C2.5 5.3731 2.8731 5 3.33333 5H4.15878C4.16467 4.99994 4.17055 4.99994 4.17641 5H6.66667V3.33334C6.66667 2.89131 6.84226 2.46739 7.15482 2.15483ZM5.07233 6.66667L5.83045 15.7641C5.83237 15.7871 5.83333 15.8102 5.83333 15.8333C5.83333 16.0543 5.92113 16.2663 6.07741 16.4226C6.23369 16.5789 6.44565 16.6667 6.66667 16.6667H13.3333C13.5543 16.6667 13.7663 16.5789 13.9226 16.4226C14.0789 16.2663 14.1667 16.0543 14.1667 15.8333C14.1667 15.8102 14.1676 15.7871 14.1695 15.7641L14.9277 6.66667H5.07233ZM11.6667 5H8.33333V3.33334H11.6667V5ZM8.33333 8.33334C8.79357 8.33334 9.16667 8.70643 9.16667 9.16667V14.1667C9.16667 14.6269 8.79357 15 8.33333 15C7.8731 15 7.5 14.6269 7.5 14.1667V9.16667C7.5 8.70643 7.8731 8.33334 8.33333 8.33334ZM11.6667 8.33334C12.1269 8.33334 12.5 8.70643 12.5 9.16667V14.1667C12.5 14.6269 12.1269 15 11.6667 15C11.2064 15 10.8333 14.6269 10.8333 14.1667V9.16667C10.8333 8.70643 11.2064 8.33334 11.6667 8.33334Z" fill="currentColor"/></symbol>
	<symbol id="WhatsApp" xmlns="http://www.w3.org/2000/svg" viewBox="0 0 32 32" fill="currentColor"><path fill-rule="evenodd" clip-rule="evenodd" d="M22.9323 7.90694C20.9558 6.22108 18.432 5.31448 15.8345 5.35728C13.237 5.40008 10.7444 6.38934 8.82449 8.13941C6.90458 9.88948 5.68934 12.28 5.40682 14.8625C5.1243 17.4449 5.79392 20.0417 7.29002 22.1655C7.55783 22.5456 7.60822 23.0378 7.42302 23.4644L6.21292 26.2513L10.4994 25.4874C10.7781 25.4377 11.0654 25.478 11.3197 25.6025C13.6528 26.7449 16.3227 26.9965 18.8283 26.3102C21.3338 25.6239 23.5028 24.0467 24.9281 21.8748C26.3534 19.7029 26.9371 17.0855 26.5696 14.5138C26.2022 11.942 24.9088 9.5928 22.9323 7.90694ZM15.7905 2.69098C19.0374 2.63748 22.1922 3.77072 24.6628 5.87805C27.1335 7.98537 28.7502 10.9219 29.2095 14.1366C29.6688 17.3512 28.9392 20.623 27.1575 23.3379C25.3759 26.0528 22.6647 28.0242 19.5328 28.8821C16.5444 29.7007 13.3691 29.4518 10.5508 28.1869L4.23394 29.3127C3.75031 29.3988 3.25846 29.2121 2.95388 28.8267C2.64929 28.4413 2.58133 27.9196 2.77698 27.469L4.68893 23.0657C3.11582 20.5372 2.43052 17.5472 2.75597 14.5725C3.10912 11.3444 4.62818 8.35622 7.02806 6.16864C9.42795 3.98106 12.5437 2.74448 15.7905 2.69098Z"/><path fill-rule="evenodd" clip-rule="evenodd" d="M11.2525 10.5858C11.6275 10.2107 12.1362 10 12.6667 10C13.1971 10 13.7058 10.2107 14.0809 10.5858C14.456 10.9609 14.6667 11.4696 14.6667 12V13.3333C14.6667 13.8638 14.456 14.3725 14.0809 14.7475C13.946 14.8824 13.7939 14.996 13.6296 15.0863C13.8915 15.8388 14.3213 16.5304 14.8954 17.1046C15.4696 17.6787 16.1612 18.1085 16.9137 18.3704C17.004 18.2061 17.1176 18.054 17.2525 17.9191C17.6275 17.544 18.1362 17.3333 18.6667 17.3333H20C20.5304 17.3333 21.0391 17.544 21.4142 17.9191C21.7893 18.2942 22 18.8029 22 19.3333C22 19.8638 21.7893 20.3725 21.4142 20.7475C21.0391 21.1226 20.5304 21.3333 20 21.3333H18.6667C16.5449 21.3333 14.5101 20.4905 13.0098 18.9902C11.5095 17.4899 10.6667 15.4551 10.6667 13.3333V12C10.6667 11.4696 10.8774 10.9609 11.2525 10.5858Z"/></symbol>
	<symbol id="ArrowsPointingOut" xmlns="http://www.w3.org/2000/svg" fill="currentColor" viewBox="0 0 32 32"><path fill-rule="evenodd" clip-rule="evenodd" d="M2.66675 22.6668C2.66675 21.9304 3.2637 21.3335 4.00008 21.3335H28.0001C28.7365 21.3335 29.3334 21.9304 29.3334 22.6668C29.3334 23.4032 28.7365 24.0002 28.0001 24.0002H4.00008C3.2637 24.0002 2.66675 23.4032 2.66675 22.6668Z"/><path fill-rule="evenodd" clip-rule="evenodd" d="M8.94289 4.39052C9.46359 4.91122 9.46359 5.75544 8.94289 6.27614L5.8857 9.33333L8.94289 12.3905C9.46359 12.9112 9.46359 13.7554 8.94289 14.2761C8.42219 14.7968 7.57797 14.7968 7.05727 14.2761L3.05727 10.2761C2.53657 9.75544 2.53657 8.91122 3.05727 8.39052L7.05727 4.39052C7.57797 3.86983 8.42219 3.86983 8.94289 4.39052Z"/><path fill-rule="evenodd" clip-rule="evenodd" d="M2.66675 9.33333C2.66675 8.59695 3.2637 8 4.00008 8H28.0001C28.7365 8 29.3334 8.59695 29.3334 9.33333C29.3334 10.0697 28.7365 10.6667 28.0001 10.6667H4.00008C3.2637 10.6667 2.66675 10.0697 2.66675 9.33333Z"/><path fill-rule="evenodd" clip-rule="evenodd" d="M23.0573 17.724C23.578 17.2033 24.4222 17.2033 24.9429 17.724L28.9429 21.724C29.4636 22.2447 29.4636 23.0889 28.9429 23.6096L24.9429 27.6096C24.4222 28.1303 23.578 28.1303 23.0573 27.6096C22.5366 27.0889 22.5366 26.2447 23.0573 25.724L26.1145 22.6668L23.0573 19.6096C22.5366 19.0889 22.5366 18.2447 23.0573 17.724Z"/></symbol>
	<symbol id="Star" xmlns="http://www.w3.org/2000/svg" viewBox="0 0 24 24" stroke-width="1.5"><path stroke-linecap="round" stroke-linejoin="round" d="M11.48 3.499a.562.562 0 011.04 0l2.125 5.111a.563.563 0 00.475.345l5.518.442c.499.04.701.663.321.988l-4.204 3.602a.563.563 0 00-.182.557l1.285 5.385a.562.562 0 01-.84.61l-4.725-2.885a.563.563 0 00-.586 0L6.982 20.54a.562.562 0 01-.84-.61l1.285-5.386a.562.562 0 00-.182-.557l-4.204-3.602a.563.563 0 01.321-.988l5.518-.442a.563.563 0 00.475-.345L11.48 3.5z" /></symbol>
	<symbol id="Ruler" xmlns="http://www.w3.org/2000/svg" viewBox="0 0 32 32" fill="currentColor"><path fill-rule="evenodd" clip-rule="evenodd" d="M21.7238 3.05715C22.2445 2.53645 23.0887 2.53645 23.6094 3.05715L28.9428 8.39048C29.4635 8.91118 29.4635 9.7554 28.9428 10.2761L10.2761 28.9428C9.7554 29.4635 8.91118 29.4635 8.39048 28.9428L3.05715 23.6094C2.53645 23.0887 2.53645 22.2445 3.05715 21.7238L21.7238 3.05715ZM5.88558 22.6666L9.33329 26.1143L26.1143 9.33329L22.6666 5.88558L5.88558 22.6666Z"/><path fill-rule="evenodd" clip-rule="evenodd" d="M18.3905 6.39052C18.9112 5.86983 19.7554 5.86983 20.2761 6.39052L22.2761 8.39052C22.7968 8.91122 22.7968 9.75544 22.2761 10.2761C21.7554 10.7968 20.9112 10.7968 20.3905 10.2761L18.3905 8.27614C17.8698 7.75544 17.8698 6.91122 18.3905 6.39052Z"/><path fill-rule="evenodd" clip-rule="evenodd" d="M14.3905 10.3905C14.9112 9.86983 15.7554 9.86983 16.2761 10.3905L18.2761 12.3905C18.7968 12.9112 18.7968 13.7554 18.2761 14.2761C17.7554 14.7968 16.9112 14.7968 16.3905 14.2761L14.3905 12.2761C13.8698 11.7554 13.8698 10.9112 14.3905 10.3905Z"/><path fill-rule="evenodd" clip-rule="evenodd" d="M10.3905 14.3905C10.9112 13.8698 11.7554 13.8698 12.2761 14.3905L14.2761 16.3905C14.7968 16.9112 14.7968 17.7554 14.2761 18.2761C13.7554 18.7968 12.9112 18.7968 12.3905 18.2761L10.3905 16.2761C9.86983 15.7554 9.86983 14.9112 10.3905 14.3905Z"/><path fill-rule="evenodd" clip-rule="evenodd" d="M6.39052 18.3905C6.91122 17.8698 7.75544 17.8698 8.27614 18.3905L10.2761 20.3905C10.7968 20.9112 10.7968 21.7554 10.2761 22.2761C9.75544 22.7968 8.91122 22.7968 8.39052 22.2761L6.39052 20.2761C5.86983 19.7554 5.86983 18.9112 6.39052 18.3905Z"/></symbol>
	<symbol id="Message" xmlns="http://www.w3.org/2000/svg" viewBox="0 0 32 32" fill="currentColor"><path fill-rule="evenodd" clip-rule="evenodd" d="M9.33337 12C9.33337 11.2636 9.93033 10.6666 10.6667 10.6666H21.3334C22.0698 10.6666 22.6667 11.2636 22.6667 12C22.6667 12.7363 22.0698 13.3333 21.3334 13.3333H10.6667C9.93033 13.3333 9.33337 12.7363 9.33337 12Z"/><path fill-rule="evenodd" clip-rule="evenodd" d="M9.33337 17.3333C9.33337 16.597 9.93033 16 10.6667 16H18.6667C19.4031 16 20 16.597 20 17.3333C20 18.0697 19.4031 18.6667 18.6667 18.6667H10.6667C9.93033 18.6667 9.33337 18.0697 9.33337 17.3333Z"/><path fill-rule="evenodd" clip-rule="evenodd" d="M7.99996 6.66667C7.29272 6.66667 6.61444 6.94762 6.11434 7.44772C5.61424 7.94781 5.33329 8.62609 5.33329 9.33333V20C5.33329 20.7072 5.61424 21.3855 6.11434 21.8856C6.61444 22.3857 7.29272 22.6667 7.99996 22.6667H10.6666C11.403 22.6667 12 23.2636 12 24V25.6451L16.6473 22.8567C16.8545 22.7323 17.0916 22.6667 17.3333 22.6667H24C24.7072 22.6667 25.3855 22.3857 25.8856 21.8856C26.3857 21.3855 26.6666 20.7072 26.6666 20V9.33333C26.6666 8.62609 26.3857 7.94781 25.8856 7.44772C25.3855 6.94762 24.7072 6.66667 24 6.66667H7.99996ZM4.22872 5.5621C5.22892 4.5619 6.58547 4 7.99996 4H24C25.4144 4 26.771 4.5619 27.7712 5.5621C28.7714 6.56229 29.3333 7.91885 29.3333 9.33333V20C29.3333 21.4145 28.7714 22.771 27.7712 23.7712C26.771 24.7714 25.4144 25.3333 24 25.3333H17.7026L11.3526 29.1433C10.9407 29.3905 10.4277 29.3969 10.0097 29.1603C9.59168 28.9236 9.33329 28.4804 9.33329 28V25.3333H7.99996C6.58547 25.3333 5.22892 24.7714 4.22872 23.7712C3.22853 22.771 2.66663 21.4145 2.66663 20V9.33333C2.66663 7.91885 3.22853 6.56229 4.22872 5.5621Z"/></symbol>
	<symbol id="Close" xmlns="http://www.w3.org/2000/svg" viewBox="0 0 24 24" fill="currentColor"><path fill-rule="evenodd" clip-rule="evenodd" d="M5.29289 5.29289C5.68342 4.90237 6.31658 4.90237 6.70711 5.29289L12 10.5858L17.2929 5.29289C17.6834 4.90237 18.3166 4.90237 18.7071 5.29289C19.0976 5.68342 19.0976 6.31658 18.7071 6.70711L13.4142 12L18.7071 17.2929C19.0976 17.6834 19.0976 18.3166 18.7071 18.7071C18.3166 19.0976 17.6834 19.0976 17.2929 18.7071L12 13.4142L6.70711 18.7071C6.31658 19.0976 5.68342 19.0976 5.29289 18.7071C4.90237 18.3166 4.90237 17.6834 5.29289 17.2929L10.5858 12L5.29289 6.70711C4.90237 6.31658 4.90237 5.68342 5.29289 5.29289Z"/></symbol>
	<symbol id="Zoom" xmlns="http://www.w3.org/2000/svg" viewBox="0 0 32 32" fill="currentColor"><path fill-rule="evenodd" clip-rule="evenodd" d="M9.25138 3.47862C10.5455 2.94257 11.9326 2.66667 13.3333 2.66667C14.7341 2.66667 16.1212 2.94257 17.4153 3.47862C18.7094 4.01467 19.8853 4.80037 20.8758 5.79086C21.8663 6.78135 22.652 7.95724 23.188 9.25138C23.7241 10.5455 24 11.9326 24 13.3333C24 14.7341 23.7241 16.1212 23.188 17.4153C22.652 18.7094 21.8663 19.8853 20.8758 20.8758C19.8853 21.8663 18.7094 22.652 17.4153 23.188C16.1212 23.7241 14.7341 24 13.3333 24C11.9326 24 10.5455 23.7241 9.25138 23.188C7.95724 22.652 6.78135 21.8663 5.79086 20.8758C4.80037 19.8853 4.01467 18.7094 3.47862 17.4153C2.94257 16.1212 2.66667 14.7341 2.66667 13.3333C2.66667 11.9326 2.94257 10.5455 3.47862 9.25138C4.01467 7.95724 4.80037 6.78135 5.79086 5.79086C6.78135 4.80037 7.95724 4.01467 9.25138 3.47862ZM13.3333 5.33333C12.2828 5.33333 11.2425 5.54026 10.2719 5.9423C9.30126 6.34433 8.41935 6.93361 7.67648 7.67648C6.93361 8.41935 6.34433 9.30126 5.9423 10.2719C5.54026 11.2425 5.33333 12.2828 5.33333 13.3333C5.33333 14.3839 5.54026 15.4242 5.9423 16.3948C6.34433 17.3654 6.93361 18.2473 7.67648 18.9902C8.41935 19.7331 9.30126 20.3223 10.2719 20.7244C11.2425 21.1264 12.2828 21.3333 13.3333 21.3333C14.3839 21.3333 15.4242 21.1264 16.3948 20.7244C17.3654 20.3223 18.2473 19.7331 18.9902 18.9902C19.7331 18.2473 20.3223 17.3654 20.7244 16.3948C21.1264 15.4242 21.3333 14.3839 21.3333 13.3333C21.3333 12.2828 21.1264 11.2425 20.7244 10.2719C20.3223 9.30126 19.7331 8.41935 18.9902 7.67648C18.2473 6.93361 17.3654 6.34433 16.3948 5.9423C15.4242 5.54026 14.3839 5.33333 13.3333 5.33333Z"/><path fill-rule="evenodd" clip-rule="evenodd" d="M8 13.3333C8 12.597 8.59695 12 9.33333 12H17.3333C18.0697 12 18.6667 12.597 18.6667 13.3333C18.6667 14.0697 18.0697 14.6667 17.3333 14.6667H9.33333C8.59695 14.6667 8 14.0697 8 13.3333Z"/><path fill-rule="evenodd" clip-rule="evenodd" d="M13.3333 8C14.0697 8 14.6667 8.59695 14.6667 9.33333V17.3333C14.6667 18.0697 14.0697 18.6667 13.3333 18.6667C12.597 18.6667 12 18.0697 12 17.3333V9.33333C12 8.59695 12.597 8 13.3333 8Z"/><path fill-rule="evenodd" clip-rule="evenodd" d="M19.0572 19.0572C19.5779 18.5365 20.4221 18.5365 20.9428 19.0572L28.9428 27.0572C29.4635 27.5779 29.4635 28.4221 28.9428 28.9428C28.4221 29.4635 27.5779 29.4635 27.0572 28.9428L19.0572 20.9428C18.5365 20.4221 18.5365 19.5779 19.0572 19.0572Z"/></symbol>
	<symbol id="Twitter" viewBox="0 0 32 32" fill="currentColor" xmlns="http://www.w3.org/2000/svg">
		<path fill-rule="evenodd" clip-rule="evenodd" d="M25.7085 5.17383C25.8226 5.14229 25.9346 5.1116 26.0448 5.08143C27.0071 4.8178 27.8286 4.59278 28.6991 4.17252C28.9351 4.04471 29.2112 3.98713 29.4952 4.02185C30.164 4.10361 30.6667 4.67152 30.6667 5.34533V5.34667C30.6667 5.46914 30.6499 5.58905 30.6181 5.70365C30.3614 6.70484 29.6856 8.08065 29.1556 9.12166C29.0163 9.39519 28.8888 9.64185 28.7722 9.86768C28.6425 10.1187 28.5261 10.3439 28.4215 10.5518C28.3434 10.707 28.2842 10.8285 28.2426 10.919C28.232 12.6541 27.9933 14.3807 27.5322 16.0542L27.5304 16.0606C25.8937 21.8868 21.6085 25.795 16.4174 27.3031L16.4171 27.3031C11.8358 28.6331 6.66407 27.6972 2.02863 25.1707C1.4849 24.8744 1.21677 24.2427 1.38133 23.6457C1.54588 23.0487 2.0998 22.6436 2.71858 22.6677C4.59327 22.7406 6.25872 22.2699 7.93115 21.4114C6.20014 20.3418 4.95683 19.0951 4.10438 17.7483C2.9282 15.89 2.55864 13.9398 2.57579 12.2033C2.59283 10.4771 2.99109 8.94005 3.37455 7.84784C3.56758 7.29803 3.76042 6.8509 3.90746 6.53668C3.9811 6.37932 4.04359 6.25457 4.08934 6.16618C4.11223 6.12196 4.13097 6.08678 4.14486 6.06109L4.16199 6.02971L4.16767 6.01945L4.16977 6.0157L4.17062 6.01417C4.171 6.0135 4.17135 6.01287 5.33339 6.66667L4.17135 6.01287C4.39484 5.61565 4.80575 5.3601 5.26086 5.33531C5.71596 5.31051 6.1522 5.51991 6.41753 5.8905C8.39853 8.65753 11.326 10.351 14.6663 10.6301C14.651 7.82308 16.4169 5.41227 19.0258 4.43534C21.1915 3.62441 23.7548 3.53044 25.7085 5.17383ZM5.73392 9.20834C5.4743 10.0564 5.25343 11.1054 5.24233 12.2297C5.22914 13.5653 5.51108 14.9846 6.35765 16.3222C7.20231 17.6567 8.67167 19.009 11.1996 20.1111C11.6468 20.3061 11.9519 20.7298 11.9949 21.2158C12.0379 21.7018 11.812 22.1725 11.4059 22.443C10.137 23.2883 8.82865 24.0272 7.42567 24.5474C10.298 25.3864 13.1456 25.476 15.6734 24.7423M5.73392 9.20834C8.41858 11.9306 12.0496 13.4348 16.0342 13.3329C16.757 13.3144 17.3334 12.7231 17.3334 12V10.6667L17.3333 10.6484C17.3108 9.00681 18.3282 7.54404 19.961 6.93266C21.8151 6.23837 23.3524 6.44157 24.3355 7.55097C24.6786 7.93812 25.2146 8.09189 25.7108 7.94548C25.9884 7.86355 26.2807 7.78378 26.5839 7.70106C26.6992 7.66959 26.816 7.6377 26.9342 7.6051C26.8831 7.70696 26.8314 7.80926 26.7792 7.91167C26.6594 8.14697 26.5339 8.39013 26.4146 8.6212C26.2744 8.89273 26.1428 9.14756 26.0393 9.35333C25.9398 9.55108 25.8466 9.74167 25.7762 9.90182C25.7415 9.98065 25.7031 10.073 25.6709 10.1667C25.6704 10.1684 25.6697 10.1702 25.669 10.1723C25.6498 10.2277 25.5761 10.441 25.5761 10.696L25.5761 10.7034C25.5848 12.2707 25.3782 13.8317 24.9621 15.3428C23.5875 20.2319 20.028 23.4772 15.6737 24.7422"/>
	</symbol>
	<symbol fill="none" viewBox="0 0 11 20" id="Facebook" xmlns="http://www.w3.org/2000/svg">
		<path d="M7 11.5h2.5l1-4H7v-2c0-1.03 0-2 2-2h1.5V.14C10.174.097 8.943 0 7.643 0 4.928 0 3 1.657 3 4.7v2.8H0v4h3V20h4v-8.5Z" fill="currentColor"/>
	</symbol>
	<symbol id="Linkedin" viewBox="0 0 32 32" fill="currentColor" xmlns="http://www.w3.org/2000/svg">
		<path fill-rule="evenodd" clip-rule="evenodd" d="M8 6.66667C7.64638 6.66667 7.30724 6.80714 7.05719 7.05719C6.80714 7.30724 6.66667 7.64638 6.66667 8V24C6.66667 24.3536 6.80714 24.6928 7.05719 24.9428C7.30724 25.1929 7.64638 25.3333 8 25.3333H24C24.3536 25.3333 24.6928 25.1929 24.9428 24.9428C25.1929 24.6928 25.3333 24.3536 25.3333 24V8C25.3333 7.64638 25.1929 7.30724 24.9428 7.05719C24.6928 6.80714 24.3536 6.66667 24 6.66667H8ZM5.17157 5.17157C5.92172 4.42143 6.93913 4 8 4H24C25.0609 4 26.0783 4.42143 26.8284 5.17157C27.5786 5.92172 28 6.93913 28 8V24C28 25.0609 27.5786 26.0783 26.8284 26.8284C26.0783 27.5786 25.0609 28 24 28H8C6.93913 28 5.92172 27.5786 5.17157 26.8284C4.42143 26.0783 4 25.0609 4 24V8C4 6.93913 4.42143 5.92172 5.17157 5.17157Z"/>
		<path fill-rule="evenodd" clip-rule="evenodd" d="M10.6667 13.3334C11.4031 13.3334 12 13.9303 12 14.6667V21.3334C12 22.0698 11.4031 22.6667 10.6667 22.6667C9.93033 22.6667 9.33337 22.0698 9.33337 21.3334V14.6667C9.33337 13.9303 9.93033 13.3334 10.6667 13.3334Z"/>
		<path fill-rule="evenodd" clip-rule="evenodd" d="M10.6667 9.33337C11.4031 9.33337 12 9.93033 12 10.6667V10.68C12 11.4164 11.4031 12.0134 10.6667 12.0134C9.93033 12.0134 9.33337 11.4164 9.33337 10.68V10.6667C9.33337 9.93033 9.93033 9.33337 10.6667 9.33337Z"/>
		<path fill-rule="evenodd" clip-rule="evenodd" d="M16 13.3334C16.7363 13.3334 17.3333 13.9303 17.3333 14.6667V21.3334C17.3333 22.0698 16.7363 22.6667 16 22.6667C15.2636 22.6667 14.6666 22.0698 14.6666 21.3334V14.6667C14.6666 13.9303 15.2636 13.3334 16 13.3334Z"/>
		<path fill-rule="evenodd" clip-rule="evenodd" d="M15.8382 14.5049C16.5883 13.7548 17.6058 13.3334 18.6666 13.3334C19.7275 13.3334 20.7449 13.7548 21.4951 14.5049C22.2452 15.2551 22.6666 16.2725 22.6666 17.3334V21.3334C22.6666 22.0698 22.0697 22.6667 21.3333 22.6667C20.5969 22.6667 20 22.0698 20 21.3334V17.3334C20 16.9798 19.8595 16.6406 19.6094 16.3906C19.3594 16.1405 19.0202 16 18.6666 16C18.313 16 17.9739 16.1405 17.7238 16.3906C17.4738 16.6406 17.3333 16.9798 17.3333 17.3334C17.3333 18.0698 16.7363 18.6667 16 18.6667C15.2636 18.6667 14.6666 18.0698 14.6666 17.3334C14.6666 16.2725 15.0881 15.2551 15.8382 14.5049Z"/>
	</symbol>
	<symbol id="Tiktok" viewBox="0 0 32 32" fill="currentColor" xmlns="http://www.w3.org/2000/svg">
		<path fill-rule="evenodd" clip-rule="evenodd" d="M14.6666 4.00002C14.6666 3.26364 15.2636 2.66669 16 2.66669H21.444C22.0944 2.66669 22.6499 3.13595 22.7585 3.77719C22.9899 5.14231 23.6402 6.40166 24.6193 7.38071C25.5983 8.35977 26.8577 9.01005 28.2228 9.24144C28.864 9.35013 29.3333 9.90563 29.3333 10.556V15.9347C29.3333 16.3112 29.1741 16.6702 28.895 16.9229C28.6159 17.1757 28.243 17.2987 27.8683 17.2615C26.0469 17.0808 24.2834 16.56 22.6666 15.7338V19.3334C22.6662 21.212 22.1366 23.0529 21.1385 24.6444C20.1403 26.236 18.7141 27.5142 17.023 28.3326C15.332 29.1511 13.4446 29.4766 11.5772 29.2719C9.70969 29.0672 7.93763 28.3406 6.46402 27.1754C4.99041 26.0101 3.87484 24.4533 3.24513 22.6833C2.61542 20.9134 2.49703 19.0018 2.90353 17.1676C3.31003 15.3335 4.22498 13.6509 5.54355 12.3128C6.86212 10.9746 8.53098 10.0349 10.3589 9.60134C10.7557 9.50725 11.1737 9.59986 11.4935 9.85273C11.8134 10.1056 12 10.4909 12 10.8987V16.6667C12 17.0864 11.8024 17.4815 11.4666 17.7334C11.1939 17.9379 10.978 18.2088 10.8394 18.5202C10.7008 18.8317 10.6441 19.1734 10.6747 19.513C10.7053 19.8525 10.8222 20.1786 11.0143 20.4602C11.2064 20.7419 11.4673 20.9697 11.7722 21.1222C12.0771 21.2747 12.416 21.3467 12.7565 21.3313C13.0971 21.316 13.4281 21.2139 13.7181 21.0347C14.0081 20.8554 14.2475 20.605 14.4135 20.3073C14.5795 20.0095 14.6666 19.6743 14.6666 19.3334V4.00002ZM17.3333 5.33335V19.3334C17.3333 20.1288 17.13 20.9111 16.7426 21.6059C16.3552 22.3006 15.7967 22.8849 15.12 23.3031C14.4434 23.7213 13.671 23.9595 12.8764 23.9953C12.0817 24.0311 11.2911 23.8631 10.5796 23.5073C9.86814 23.1516 9.2594 22.6199 8.81121 21.9627C8.36302 21.3055 8.09025 20.5447 8.01882 19.7524C7.94738 18.9602 8.07964 18.1628 8.40305 17.4361C8.62988 16.9263 8.94547 16.4632 9.33329 16.0674V12.7995C8.63637 13.1551 7.99748 13.6217 7.44304 14.1844C6.47609 15.1657 5.80513 16.3996 5.50702 17.7447C5.20892 19.0897 5.29574 20.4915 5.75753 21.7895C6.21932 23.0875 7.0374 24.2291 8.11805 25.0837C9.1987 25.9382 10.4982 26.471 11.8677 26.6211C13.2372 26.7712 14.6212 26.5325 15.8613 25.9323C17.1014 25.3321 18.1473 24.3948 18.8793 23.2276C19.6112 22.0606 19.9996 20.7109 20 19.3334C20 19.3333 20 19.3335 20 19.3334V13.3334C20 12.8279 20.2857 12.3659 20.738 12.1403C21.1903 11.9146 21.7312 11.9641 22.1351 12.268C23.4848 13.2839 25.0302 13.998 26.6666 14.3698V11.6118C25.187 11.1701 23.8339 10.3666 22.7337 9.26633C21.6334 8.1661 20.8298 6.81296 20.3882 5.33335H17.3333Z"/>
	</symbol>

	<symbol id="Elo" width="48" height="32" viewBox="0 0 48 32" fill="currentColor" xmlns="http://www.w3.org/2000/svg">
		<path d="M10.5988 12.1154C11.02 11.9773 11.4706 11.9024 11.9395 11.9024C13.9856 11.9024 15.6923 13.3282 16.0839 15.2222L18.9834 14.6423C18.3181 11.4232 15.4175 9 11.9395 9C11.1431 9 10.3766 9.12726 9.66113 9.36168L10.5988 12.1154Z"/>
		<path d="M7.14818 21.4445L8.88427 19.2029C8.10933 18.419 7.62022 17.2747 7.62022 15.9991C7.62022 14.7246 8.10887 13.5802 8.88359 12.797L7.14659 10.5556C5.8298 11.8873 5 13.8326 5 15.9991C5 18.1669 5.83102 20.1128 7.14818 21.4445"/>
		<path d="M16.0848 16.7778C15.6919 18.6715 13.9862 20.0955 11.9419 20.0955C11.4729 20.0955 11.0214 20.0203 10.6002 19.8818L9.66113 22.637C10.3778 22.8726 11.1445 23 11.9419 23C15.4168 23 18.3154 20.5785 18.9834 17.3606L16.0848 16.7778Z"/>
		<path fill-rule="evenodd" clip-rule="evenodd" d="M32.9337 10.5556V18.522L34.3633 19.095L33.687 20.6663L32.2733 20.098C31.9554 19.9647 31.7402 19.7616 31.5768 19.5322C31.4199 19.2976 31.3035 18.9768 31.3035 18.5439V10.5556H32.9337ZM22.0913 16.4765C22.1269 14.1983 24.067 12.3798 26.4211 12.4147C28.4192 12.445 30.0748 13.7983 30.5096 15.5983L22.7816 18.7923C22.3327 18.1286 22.0776 17.3303 22.0913 16.4765ZM23.8596 16.7959C23.8491 16.7003 23.8416 16.6023 23.8444 16.5034C23.8666 15.1612 25.0088 14.0902 26.3958 14.1124C27.1507 14.1221 27.8211 14.4565 28.2743 14.9739L23.8596 16.7959ZM28.1115 18.2749C27.6457 18.713 27.0141 18.9799 26.3167 18.9703C25.8387 18.9626 25.3958 18.8242 25.0192 18.5936L24.0857 20.032C24.725 20.4228 25.4789 20.6541 26.2916 20.6662C27.4747 20.6832 28.553 20.2339 29.337 19.4918L28.1115 18.2749ZM38.8836 14.1123C38.6051 14.1123 38.3375 14.1558 38.0874 14.237L37.5312 12.6251C37.9557 12.488 38.4104 12.4135 38.8836 12.4135C40.9483 12.4135 42.6708 13.8318 43.0658 15.7159L41.3438 16.0554C41.1118 14.9465 40.0984 14.1123 38.8836 14.1123ZM36.0562 19.6309L37.2198 18.3586C36.7001 17.9137 36.3729 17.264 36.3729 16.5398C36.3729 15.8163 36.7001 15.1668 37.2193 14.7223L36.0549 13.4499C35.1721 14.2059 34.616 15.3105 34.616 16.5398C34.616 17.7705 35.1726 18.8747 36.0562 19.6309ZM38.8835 18.9681C40.0973 18.9681 41.1105 18.1346 41.3438 17.0274L43.0653 17.3683C42.6684 19.2503 40.9464 20.6667 38.8835 20.6667C38.41 20.6667 37.9547 20.592 37.529 20.4543L38.0866 18.8429C38.337 18.9239 38.6048 18.9681 38.8835 18.9681Z"/>
	</symbol>

	<symbol id="Diners" width="48" height="32" viewBox="0 0 48 32" fill="currentColor" xmlns="http://www.w3.org/2000/svg">
		<path fill-rule="evenodd" clip-rule="evenodd" d="M21.7657 27H25.7046C31.8531 27 36.7527 22.122 36.9448 16.0963V16.0007C36.8488 9.87932 31.8531 4.90571 25.7046 5.00136H21.2853C15.425 5.19265 10.8137 10.1663 11.0058 16.0963C11.0058 22.0264 15.8093 26.9044 21.7657 27ZM12.9272 16.0006C12.9272 11.027 17.0582 6.91424 22.0539 6.91424C27.0495 6.91424 31.1806 11.027 31.1806 16.0006C31.1806 20.9742 27.0495 25.087 22.0539 25.087C17.0582 25.087 12.9272 20.9742 12.9272 16.0006Z"/>
		<path fill-rule="evenodd" clip-rule="evenodd" d="M23.4949 22.122V9.97491C26.8573 10.8357 28.9709 14.1834 28.1063 17.531C27.5298 19.8265 25.8006 21.5481 23.4949 22.122V22.122Z"/>
		<path fill-rule="evenodd" clip-rule="evenodd" d="M20.6128 22.122C17.2504 21.2612 15.2329 17.8179 16.0975 14.4703C16.674 12.2704 18.4032 10.5488 20.6128 9.97491V22.122V22.122Z"/>
	</symbol>

	<symbol id="Mastercard" width="51" height="32" viewBox="0 0 51 32" fill="currentColor" xmlns="http://www.w3.org/2000/svg">
		<path d="M23.5524 24.2952C23.637 24.3667 23.7274 24.4381 23.8163 24.5081C22.0999 25.65 20.0392 26.3135 17.827 26.3135C11.8522 26.315 7.0105 21.4733 7.0105 15.5C7.0105 9.52812 11.8522 4.685 17.8255 4.685C20.0392 4.685 22.0999 5.35 23.812 6.49041C23.7245 6.56479 23.637 6.63333 23.5713 6.70916C21.0105 8.92146 19.5449 12.1283 19.5449 15.5C19.5449 18.8702 21.0047 22.0771 23.5524 24.2952ZM31.1955 4.685C28.9788 4.685 26.9211 5.35 25.209 6.49041C25.2965 6.56479 25.384 6.63333 25.4497 6.70916C28.0105 8.92146 29.4761 12.1283 29.4761 15.5C29.4761 18.8687 28.0163 22.0727 25.4686 24.2952C25.384 24.3667 25.2936 24.4381 25.2047 24.5081C26.9211 25.65 28.9788 26.3135 31.194 26.3135C37.1688 26.315 42.0105 21.4733 42.0105 15.5C42.0105 9.52958 37.1688 4.685 31.1955 4.685ZM24.5105 7.00375C24.3705 7.11312 24.2349 7.2225 24.1022 7.34062C21.8213 9.3225 20.382 12.2406 20.382 15.5C20.382 18.7608 21.8213 21.6775 24.1022 23.6594C24.2334 23.776 24.372 23.8898 24.5105 23.9977C24.6505 23.8898 24.7861 23.776 24.9188 23.6594C27.1982 21.6775 28.639 18.7608 28.639 15.5C28.639 12.2406 27.1997 9.3225 24.9188 7.34062C24.7876 7.22396 24.6505 7.11312 24.5105 7.00375Z"/>
	</symbol>

	<symbol id="Pix" width="49" height="32" viewBox="0 0 49 32" fill="none" xmlns="http://www.w3.org/2000/svg">
		<path d="M20.3406 22.0724V14.0428C20.3406 13.3334 20.6224 12.6531 21.124 12.1515C21.6256 11.6498 22.3059 11.368 23.0153 11.368L25.3859 11.3713C26.0934 11.3728 26.7715 11.6549 27.2712 12.1557C27.771 12.6566 28.0516 13.3353 28.0515 14.0428V15.7516C28.0515 16.461 27.7697 17.1414 27.2681 17.6431C26.7665 18.1447 26.0862 18.4266 25.3768 18.4267H22.0262" stroke="currentColor" stroke-linecap="round" stroke-linejoin="round"/>
		<path d="M28.7141 11.3676H29.7425C30.0337 11.3676 30.3129 11.4833 30.5188 11.6892C30.7247 11.8951 30.8404 12.1743 30.8404 12.4655V18.4631" stroke="currentColor" stroke-linecap="round" stroke-linejoin="round"/>
		<path d="M30.6194 10.4384L30.1532 9.97175C30.1257 9.94427 30.1038 9.91163 30.089 9.87571C30.0741 9.83978 30.0664 9.80128 30.0664 9.76239C30.0664 9.72351 30.0741 9.685 30.089 9.64908C30.1038 9.61316 30.1257 9.58052 30.1532 9.55303L30.6194 9.08678C30.6751 9.03117 30.7505 8.99994 30.8292 8.99994C30.9079 8.99994 30.9833 9.03117 31.039 9.08678L31.5048 9.55303C31.5323 9.58052 31.5541 9.61316 31.569 9.64908C31.5839 9.685 31.5916 9.72351 31.5916 9.76239C31.5916 9.80128 31.5839 9.83978 31.569 9.87571C31.5541 9.91163 31.5323 9.94427 31.5048 9.97175L31.0369 10.4384C31.0094 10.4659 30.9767 10.4878 30.9408 10.5027C30.9048 10.5176 30.8663 10.5252 30.8273 10.5252C30.7884 10.5252 30.7499 10.5176 30.7139 10.5027C30.678 10.4878 30.6453 10.4659 30.6178 10.4384" fill="currentColor"/>
		<path d="M32.8145 11.3622H33.8342C34.3587 11.362 34.8619 11.5702 35.2329 11.9409L37.6183 14.3263C37.6918 14.3999 37.779 14.4582 37.875 14.498C37.971 14.5378 38.0739 14.5583 38.1778 14.5583C38.2817 14.5583 38.3846 14.5378 38.4806 14.498C38.5766 14.4582 38.6638 14.3999 38.7373 14.3263L41.114 11.95C41.2976 11.7664 41.5157 11.6208 41.7556 11.5215C41.9955 11.4222 42.2527 11.3712 42.5124 11.3713H43.3415" stroke="currentColor" stroke-linecap="round" stroke-linejoin="round"/>
		<path d="M32.8145 18.4107H33.8342C34.3587 18.4108 34.8618 18.2027 35.2329 17.832L37.6183 15.4466C37.7668 15.2983 37.968 15.215 38.1778 15.215C38.3876 15.215 38.5888 15.2983 38.7373 15.4466L41.114 17.8233C41.485 18.194 41.9879 18.4021 42.5124 18.402H43.3415" stroke="currentColor" stroke-linecap="round" stroke-linejoin="round"/>
		<path d="M14.2607 19.9342C14.0091 19.9352 13.7598 19.8862 13.5272 19.7902C13.2947 19.6942 13.0834 19.5531 12.9057 19.375L10.9485 17.4166C10.8793 17.3504 10.7872 17.3134 10.6914 17.3134C10.5957 17.3134 10.5036 17.3504 10.4343 17.4166L8.47054 19.3804C8.29294 19.5587 8.08176 19.7001 7.8492 19.7964C7.61663 19.8927 7.3673 19.9419 7.11559 19.9413H6.73242L9.21249 22.4213C9.58445 22.7925 10.0885 23.001 10.6139 23.001C11.1394 23.001 11.6434 22.7925 12.0154 22.4213L14.5004 19.9359L14.2607 19.9342Z" fill="currentColor"/>
		<path d="M7.11601 13.0132C7.36771 13.0125 7.61706 13.0617 7.84962 13.158C8.08219 13.2543 8.29337 13.3957 8.47095 13.5741L10.4348 15.5383C10.503 15.6064 10.5955 15.6446 10.6919 15.6446C10.7882 15.6446 10.8807 15.6064 10.949 15.5383L12.9057 13.5815C13.0832 13.4029 13.2943 13.2613 13.5269 13.165C13.7595 13.0686 14.0089 13.0194 14.2607 13.0202H14.4963L12.0113 10.5352C11.8272 10.3511 11.6088 10.2051 11.3683 10.1054C11.1278 10.0058 10.8701 9.95453 10.6098 9.95453C10.3495 9.95453 10.0918 10.0058 9.85132 10.1054C9.61085 10.2051 9.39238 10.3511 9.20836 10.5352L6.73242 13.0132H7.11601Z" fill="currentColor"/>
		<path d="M16.5517 15.0762L15.05 13.5745C15.0162 13.5883 14.98 13.5956 14.9434 13.596H14.2605C13.9052 13.5969 13.5646 13.738 13.3127 13.9887L11.356 15.9442C11.1797 16.1201 10.9409 16.2189 10.6919 16.2189C10.4429 16.2189 10.2041 16.1201 10.0279 15.9442L8.06367 13.9812C7.81189 13.7304 7.47127 13.5891 7.11587 13.5881H6.27761C6.24306 13.5873 6.20892 13.5805 6.17675 13.5679L4.66556 15.0762C4.29439 15.4481 4.08594 15.9521 4.08594 16.4776C4.08594 17.0031 4.29439 17.5071 4.66556 17.8791L6.17345 19.3869C6.20555 19.3741 6.23973 19.3672 6.2743 19.3667H7.11587C7.47126 19.3656 7.81187 19.2244 8.06367 18.9736L10.0275 17.0098C10.3825 16.6551 11.0013 16.6551 11.356 17.0098L13.3127 18.9662C13.5646 19.2168 13.9052 19.3579 14.2605 19.3588H14.9434C14.98 19.3591 15.0162 19.3664 15.05 19.3803L16.5517 17.8786C16.7358 17.6946 16.8818 17.4762 16.9815 17.2357C17.0811 16.9952 17.1324 16.7375 17.1324 16.4772C17.1324 16.2169 17.0811 15.9592 16.9815 15.7187C16.8818 15.4783 16.7358 15.2602 16.5517 15.0762Z" fill="currentColor"/>
	</symbol>


	<symbol id="Visa" width="49" height="32" viewBox="0 0 49 32" fill="currentColor" xmlns="http://www.w3.org/2000/svg">
		<path fill-rule="evenodd" clip-rule="evenodd" d="M15.2187 21.9066H12.0577L9.68724 12.5973C9.57473 12.1691 9.33584 11.7905 8.98444 11.6121C8.10747 11.1637 7.14112 10.8068 6.08691 10.6268V10.2684H11.1792C11.882 10.2684 12.4091 10.8068 12.4969 11.4321L13.7268 18.1472L16.8863 10.2684H19.9596L15.2187 21.9066Z"/>
		<path fill-rule="evenodd" clip-rule="evenodd" d="M21.7166 21.9066H18.7312L21.1895 10.2684H24.1748L21.7166 21.9066Z"/>
		<path fill-rule="evenodd" clip-rule="evenodd" d="M28.0374 13.4925C28.1252 12.8657 28.6523 12.5073 29.2673 12.5073C30.2336 12.4173 31.2863 12.5973 32.1648 13.0441L32.6919 10.5384C31.8134 10.18 30.8471 10 29.9701 10C27.0726 10 24.9642 11.6121 24.9642 13.8494C24.9642 15.5514 26.4576 16.4451 27.5118 16.9835C28.6523 17.5203 29.0916 17.8787 29.0037 18.4156C29.0037 19.2208 28.1252 19.5792 27.2483 19.5792C26.1941 19.5792 25.1399 19.3108 24.1751 18.8624L23.6479 21.3697C24.7022 21.8166 25.8427 21.9965 26.8969 21.9965C30.1458 22.085 32.1648 20.4745 32.1648 18.0572C32.1648 15.013 28.0374 14.8346 28.0374 13.4925V13.4925Z"/>
		<path fill-rule="evenodd" clip-rule="evenodd" d="M40.2424 10.2684L42.6128 21.9066H39.891L39.5396 20.2061H35.7635L35.1501 21.9066H32.0769L36.4663 11.1637C36.642 10.6268 37.1691 10.2684 37.6962 10.2684H40.2424ZM39.0122 17.7887L38.1353 13.4025L36.554 17.7887H39.0122Z"/>
	</symbol>

	<symbol id="Hipercard" xmlns="http://www.w3.org/2000/svg" width="49" height="32" viewBox="0 0 512 320" >
		<path fill="#FFF" d="M374 321H1V1h512v320zM35.306 254.353c.02.168.039.336-.298 1.253-.56 4.853 3.204 2.42 4.748 2.423 79.093.115 158.187.084 237.28.056 1.658 0 3.316-.153 5.895-.058 39.612-.005 79.224-.002 118.837-.038 2.138-.002 4.276-.34 7.277-.422 1.487-.185 2.982-.327 4.461-.564 18.09-2.9 29.138-12.525 32.325-28.098 9.24-45.14 18.496-90.279 27.736-135.42 1.957-9.562 3.87-19.133 5.916-29.262h-6.103c-120.61.059-241.219.07-361.828.309-6.383.012-12.963 1.275-19.102 3.118-13.305 3.994-21.712 12.81-24.528 26.828-6.125 30.49-12.562 60.917-18.771 91.39-4.618 22.663-9.077 45.357-13.845 68.485"/>
		<path fill="#4D4D4D" d="M282.009 257.85c-1.657.082-3.315.235-4.972.235-79.094.028-158.188.059-237.281-.056-1.544-.002-5.308 2.43-4.32-2.822.563-.495.697-.59.831-.686l-.723-.616c4.53-22.68 8.99-45.374 13.607-68.037 6.209-30.473 12.646-60.9 18.771-91.39C70.738 80.461 79.145 71.644 92.45 67.65c6.139-1.843 12.719-3.106 19.102-3.118 120.609-.239 241.219-.25 361.828-.31h6.103c-2.047 10.13-3.96 19.701-5.916 29.263-9.24 45.141-18.496 90.28-27.736 135.42-3.187 15.573-14.235 25.199-32.325 28.098-1.479.237-2.974.379-5.146.137-1.46-.66-2.235-1.097-3.011-1.098-39.951-.037-79.902-.053-119.852.036-1.164.002-2.325 1.156-3.488 1.773M124.689 129.09c-.95 5.572-1.795 11.165-2.919 16.702-.287 1.413-1.42 3.769-2.22 3.792-9.212.27-18.435.172-28.175.172l4.671-26.417H85.25l-11.418 65.308h10.774l5.568-32.17h29.711c-1.98 10.875-3.905 21.435-5.884 32.296h11l11.525-65.212c-10.389-1.465-10.88-1.265-11.837 5.529m39.052 12.977c-1.004 1.365-2.64 2.613-2.915 4.111-2.803 15.228-5.36 30.501-8.038 45.753-1.026 5.845-2.184 11.668-3.342 17.82h9.66l3.875-24.116c2.607 1.587 4.67 3.648 7.059 4.15 7.769 1.63 15.088.046 20.634-5.87 7.717-8.233 10.518-18.423 9.55-29.485-.733-8.366-6.195-13.437-14.651-13.203-5.259.146-10.472 1.919-15.661 2.952.004-3.3-3.088-1.9-6.171-2.112m274.441-4.215 3.042-15.784c-1.631-.097-2.614-.072-3.567-.227-4.704-.764-6.915.676-6.992 5.964-.069 4.722-1.48 9.426-2.265 13.953-.712.218-1.04.432-1.328.387-1.147-.18-2.273-.5-3.422-.66-10.57-1.474-20.068.346-26.541 9.715-5.376 7.78-7.717 16.585-6.758 26.038.812 7.99 5.433 12.116 13.458 12.738 6.876.533 13.19-.495 18.303-7.008v5.747h7.572zm-84.53 4.735-27.002-1.377-1.86 8.478c2.606-.526 4.491-1.143 6.404-1.245 4.772-.255 9.591-.678 14.323-.258 3.543.314 4.552 3.185 4.28 6.682-.295 3.802-2.592 3.94-5.5 3.791-3.151-.16-6.338-.275-9.472.009-8.06.73-14.858 3.67-18.197 11.741-4.71 11.384.957 19.597 13.16 19.698 6.432.053 11.397-2.583 15.999-7.574v6.147h7.818c.718-5.44 1.287-10.544 2.087-15.612.96-6.075 2.26-12.098 3.144-18.182.682-4.69 1.049-9.476-5.184-12.298m-144.444 8.194c-4.674 7.602-6.662 15.893-6.221 24.765.346 6.97 4.254 12.463 11.131 13.424 6.305.88 12.839.082 19.272.094 5.714.01 7.927-2.893 7.296-7.74-6.06.647-12.05 1.635-18.065 1.819-4.767.146-8.529-2.438-9.334-7.341-.622-3.786-.124-7.756-.124-11.994 8.9 0 16.875-.026 24.85.006 9.403.038 7.12.681 8.626-7.577 1.288-7.06-1.862-12.588-8.042-14.074-11.019-2.648-21.164-1.326-29.389 8.618m91.02 32.4c-10.508 1.064-14.904-2.766-14.087-13.076.362-4.56 1.525-9.208 3.192-13.477 2.826-7.241 7.508-9.776 15.348-9.08 3.56.315 7.089.993 10.844 1.537l1.102-7.13c-7.31 0-14.22-.41-21.055.125-5.79.453-10.107 4.152-13.153 8.964-4.668 7.373-6.711 15.548-6.22 24.254.511 9.056 5.896 14.38 15.014 14.626 4.12.111 8.26-.605 12.393-.898 5.164-.366 6.476-3.413 5.93-8.059a445 445 0 0 1-9.308 2.214m77.879-37.78v-3.079h-7.79c-2.754 15.547-5.466 30.848-8.213 46.346h9.153c1.58-8.878 2.81-17.42 4.666-25.823 2.569-11.638 6.479-14.49 18.65-14.22 0-2.177.84-5.551-.188-6.275-1.735-1.222-4.888-1.506-7.014-.83-2.695.857-4.93 3.118-7.437 4.65-.457.279-1.275-.034-1.827-.77m-111.872 7.364c3.63-4.694 8.633-4.898 14.25-3.773l.766-6.438c-6.661-2.674-8.856-1.98-17.232 5.26l.32-5.515h-7.995l-8.23 46.404h9.423c.518-3.723.692-7.23 1.533-10.567 2.088-8.287 4.48-16.498 7.165-25.37m-129.126 23.877-2.17 11.98h9.555c1.34-8.106 2.548-15.814 3.906-23.495 1.339-7.575 2.83-15.123 4.278-22.815h-9.465c-1.995 11.299-3.954 22.396-6.104 34.33m11.422-53.688c-1.167 1.528-2.881 2.9-3.374 4.622-.792 2.765-.898 6.196 3.168 6.361 2.001.081 4.861-1.014 5.904-2.548 1.202-1.768 1.63-4.933.848-6.866-.496-1.227-3.81-1.315-6.546-1.57"/><path fill="#464646" d="M282.47 257.939c.702-.705 1.863-1.859 3.027-1.861 39.95-.09 79.901-.073 119.852-.036.776 0 1.551.438 2.58 1.048a22.1 22.1 0 0 1-6.161.899c-39.613.036-79.225.033-119.298-.05M35.425 254.13c.36-.02.601.186.842.39-.134.097-.268.192-.652.312-.27-.143-.29-.31-.19-.703"/><path fill="#F9F9F9" d="M124.758 128.663c.887-6.367 1.378-6.567 11.767-5.102L125 188.773h-11l5.883-32.296h-29.71l-5.568 32.17H73.83l11.418-65.308h10.797l-4.67 26.417c9.74 0 18.962.097 28.173-.172.8-.023 1.934-2.379 2.221-3.792 1.124-5.537 1.97-11.13 2.988-17.129"/><path fill="#F8F8F8" d="M164.174 142.066c2.649.214 5.741-1.187 5.737 2.113 5.189-1.033 10.402-2.806 15.66-2.952 8.457-.234 13.919 4.837 14.651 13.203.969 11.062-1.832 21.252-9.549 29.485-5.546 5.916-12.865 7.5-20.634 5.87-2.39-.502-4.452-2.563-7.059-4.15l-3.875 24.115h-9.66c1.158-6.151 2.316-11.974 3.342-17.82 2.677-15.25 5.235-30.524 8.038-45.752.275-1.498 1.91-2.746 3.35-4.112m.847 33.179c1.548 7.69 6.426 10.636 13.654 7.713 2.443-.989 4.881-2.941 6.392-5.103 4.663-6.67 5.808-14.388 5.023-22.327-.5-5.06-4.304-8.031-9.649-8.213-5.86-.2-11.071 2.937-11.958 7.493-1.266 6.508-2.3 13.06-3.462 20.437m273.088-36.968-8.427 50.438h-7.572v-5.747c-5.112 6.513-11.427 7.541-18.303 7.008-8.025-.622-12.646-4.747-13.458-12.738-.96-9.453 1.382-18.258 6.758-26.038 6.473-9.369 15.97-11.19 26.54-9.714 1.15.16 2.276.48 3.423.659.288.045.616-.17 1.328-.387.786-4.527 2.196-9.23 2.265-13.953.077-5.288 2.288-6.728 6.992-5.964.953.155 1.936.13 3.567.227-1.059 5.494-2.05 10.64-3.113 16.209m-12.548 10.412c-12.474-3.549-19.908.383-23.55 12.777-1.019 3.462-1.56 7.14-1.755 10.75-.252 4.628.42 9.07 5.808 10.867 5.043 1.681 12.112.153 13.772-4.938 3.068-9.407 4.437-19.367 5.725-29.456m-71.557-5.921c5.879 2.64 5.512 7.427 4.83 12.117-.885 6.084-2.184 12.107-3.144 18.182-.8 5.068-1.37 10.172-2.087 15.612h-7.818v-6.147c-4.602 4.991-9.567 7.627-15.998 7.574-12.204-.101-17.87-8.314-13.161-19.698 3.339-8.072 10.137-11.01 18.197-11.741 3.134-.284 6.321-.17 9.472-.009 2.908.148 5.205.01 5.5-3.791.272-3.497-.737-6.368-4.28-6.682-4.732-.42-9.551.003-14.323.258-1.913.102-3.798.72-6.404 1.245l1.86-8.478c9.013.46 18.007.918 27.356 1.558m-24.502 40.366c9.613 2.667 17.522-5.186 17.87-19.392-4.978.441-9.965.43-14.738 1.435-4.695.989-6.995 4.894-7.723 9.432-.555 3.454.068 6.686 4.59 8.525"/><path fill="#F5F5F5" d="M209.422 150.49c8.01-9.653 18.155-10.975 29.174-8.327 6.18 1.486 9.33 7.015 8.042 14.074-1.506 8.258.777 7.615-8.626 7.577-7.975-.032-15.95-.006-24.85-.006 0 4.238-.498 8.208.124 11.994.805 4.903 4.567 7.487 9.334 7.34 6.015-.183 12.005-1.17 18.065-1.818.63 4.847-1.582 7.75-7.296 7.74-6.433-.012-12.967.787-19.272-.094-6.877-.961-10.785-6.454-11.131-13.424-.44-8.872 1.547-17.163 6.436-25.056m25.637 7.68c.884-1.455 2.754-3.182 2.442-4.305-.591-2.133-2-4.794-3.828-5.697-7.55-3.728-15.992.847-18.357 10.007 6.372 0 12.602 0 19.743-.005"/><path fill="#F7F7F7" d="M300.67 183.109a780 780 0 0 0 8.866-2.142c.545 4.646-.767 7.693-5.93 8.059-4.135.293-8.274 1.01-12.394.898-9.118-.247-14.503-5.57-15.014-14.626-.491-8.706 1.552-16.881 6.22-24.254 3.046-4.812 7.363-8.511 13.153-8.964 6.835-.534 13.745-.125 21.055-.125l-1.102 7.13c-3.755-.544-7.284-1.222-10.844-1.538-7.84-.695-12.522 1.84-15.348 9.08-1.667 4.27-2.83 8.919-3.192 13.478-.817 10.31 3.579 14.14 14.53 13.004m77.386-37.36c.602.387 1.42.7 1.877.42 2.508-1.531 4.742-3.792 7.437-4.65 2.126-.675 5.279-.391 7.014.831 1.027.724.188 4.098.188 6.275-12.171-.27-16.081 2.582-18.65 14.22-1.856 8.403-3.086 16.945-4.666 25.823h-9.153l8.214-46.346h7.789c0 .954 0 2.016-.05 3.427"/><path fill="#F8F8F8" d="M266.027 153.08c-2.478 8.557-4.87 16.768-6.958 25.055-.841 3.338-1.015 6.844-1.533 10.567h-9.423l8.23-46.404h7.994l-.319 5.515c8.376-7.24 10.571-7.934 17.232-5.26-.228 1.914-.47 3.96-.766 6.438-5.617-1.125-10.62-.921-14.457 4.089"/><path fill="#F7F7F7" d="M137.204 176.224c2.054-11.516 4.013-22.613 6.008-33.912h9.465c-1.449 7.692-2.94 15.24-4.278 22.815-1.358 7.681-2.565 15.39-3.906 23.495h-9.556c.724-3.997 1.448-7.988 2.267-12.398"/><path fill="#F2F2F2" d="M148.874 122.781c2.393.427 5.706.515 6.202 1.742.782 1.933.354 5.098-.848 6.866-1.043 1.534-3.903 2.63-5.904 2.548-4.066-.165-3.96-3.596-3.168-6.361.493-1.722 2.207-3.094 3.718-4.795"/><path fill="#4E4E4E" d="M165.037 174.823c1.148-6.955 2.181-13.507 3.447-20.015.887-4.556 6.097-7.693 11.958-7.493 5.345.182 9.148 3.153 9.649 8.213.785 7.94-.36 15.658-5.023 22.327-1.51 2.162-3.95 4.114-6.392 5.103-7.228 2.923-12.106-.023-13.64-8.135"/><path fill="#505050" d="M425.957 148.868c-1.683 9.91-3.052 19.87-6.12 29.277-1.66 5.09-8.729 6.62-13.772 4.938-5.387-1.796-6.06-6.239-5.808-10.867.196-3.61.736-7.288 1.754-10.75 3.643-12.394 11.077-16.326 23.946-12.598m-96.835 34.156c-4.142-1.729-4.765-4.96-4.21-8.415.728-4.538 3.028-8.443 7.723-9.432 4.773-1.006 9.76-.994 14.738-1.435-.348 14.206-8.257 22.06-18.251 19.282m-94.519-24.851c-6.685.002-12.915.002-19.287.002 2.365-9.16 10.807-13.735 18.357-10.007 1.829.903 3.237 3.564 3.828 5.697.312 1.123-1.558 2.85-2.898 4.308"/>
	</symbol>

	<symbol id="Aura" width="49" height="32" xmlns="http://www.w3.org/2000/svg" viewBox="0 0 512 320"><path fill="#FFF" d="M382 321H1V1h512v320zM72.948 145.899c.053 11.684.105 23.368.05 35.99v100.255h7.162c115.664 0 231.328-.003 346.991.017 2.823 0 5.662.1 8.465.41 3.663.405 5.137-.974 5.123-4.73-.114-29.659-.115-59.318-.023-89.889.044-11.675.089-23.351.274-35.946-.011-15.27.022-30.54-.046-45.81-.095-21.401-.266-42.803-.203-64.883-.133-.435-.266-.87-.331-2.04-1.529-.317-3.058-.912-4.586-.912-119.109-.043-238.217-.04-357.326-.04h-5.407c0 36.033 0 71.34-.143 107.578"/><path fill="#898989" d="M440.588 188.863c.036 29.66.037 59.32.15 88.979.015 3.755-1.459 5.134-5.122 4.73-2.803-.31-5.642-.411-8.465-.411-115.663-.02-231.327-.017-346.99-.017h-7.163c0-33.729 0-66.992.463-100.683 5.174-1.3 9.912-2.04 14.587-3.068 13.853-3.041 27.595-6.675 41.542-9.177a632 632 0 0 1 46.174-6.544c19.12-1.987 38.313-4.039 57.504-4.386 22.074-.4 44.202.636 66.264 1.82 13.197.71 26.426 2.266 39.44 4.572 18.042 3.198 35.975 7.123 53.802 11.38 12.375 2.955 24.473 7.06 36.736 10.508 3.622 1.018 7.382 1.545 11.078 2.297M359.274 232.9c-.166-4.31-.42-8.62-.477-12.932-.094-7.212-2.718-10.332-10.07-10.801-5.463-.348-10.992-.401-16.442.033-4.997.398-9.759 1.897-12.569 8.173 3.17-.266 6.575.488 7.958-.85 5.8-5.606 12.254-4.882 19.009-3.153 3.403.87 4.88 2.8 1.91 6.28-7.8.967-15.693 1.508-23.354 3.134-2.687.57-4.808 3.806-7.188 5.825 2.22 2.18 4.293 6.019 6.685 6.229 7.272.64 14.668-.094 22.013-.36 1.753-.062 3.497-.382 5.337-.327 0 0 .27.033.57.737l7.102 1.061c-.074-.724-.147-1.449-.484-3.049m-127.758.82c8.72 4.04 17.322 3.216 25.511.714l7.8 1.977v-26.93h-7.783c0 5.2-.087 9.995.028 14.785.09 3.743-1.85 6.24-5.11 7.069-5.658 1.44-11.477 2.286-16.43-3.333v-18.589h-7.788c0 6.368-.246 12.483.15 18.556.118 1.802 2.041 3.486 3.622 5.751m-39.134-29.656c-5.864-7.714-11.29-7.578-16.537.342-5.88 8.875-11.836 17.7-17.73 26.565-.93 1.4-1.703 2.902-2.56 4.375 6.46 2.228 9.94-.414 12.11-5.455 1.812-4.212 4.778-5.784 9.418-5.3 4.285.445 8.688.445 12.975.009 5.603-.57 9.72.93 11.954 6.362 2.335 5.678 6.776 5.782 12.559 4.428a21554 21554 0 0 0-22.189-31.326m100.926 13.13c2.635-4.265 6.733-4.559 10.958-3.636 3.572.78 4.175-1.073 4.819-5.079l-16.717 1.902-7.66-1.858v27.064h6.805c.544-6.154 1.051-11.885 1.795-18.393"/><path fill="#171717" d="M440.54 41.991c.138 21.402.31 42.804.404 64.206.068 15.27.035 30.54-.367 46.135-8.353-2.267-16.21-5.146-24.248-7.384-12.622-3.514-25.247-7.194-38.085-9.72-18.267-3.592-36.728-6.203-55.3-9.567-4.171-16.413-13.304-28.81-27.567-37.062-6.083-3.519-12.893-5.78-19.44-8.967-1.414-.34-2.762-.328-4.442-.331-1.373-.37-2.415-.723-3.534-1.485-3.482-2.3-6.837-3.263-10.392.2-14.29.026-27.585 2.367-39.33 10.17-13.55 9.004-23.669 20.772-28.55 36.825-8.979.985-17.534 1.712-26.007 2.983-15.158 2.274-30.322 4.588-45.379 7.438-10.285 1.947-20.365 4.96-30.594 7.243-4.804 1.072-9.741 1.546-14.618 2.291V38.321h5.407c119.109 0 238.217-.003 357.326.04 1.528 0 3.057.595 4.263 1.304a12 12 0 0 1-1.74 1.265z"/><path fill="#535353" d="M323.138 125.995c18.378 3.03 36.839 5.64 55.106 9.234 12.838 2.525 25.463 6.205 38.085 9.72 8.037 2.237 15.895 5.116 24.177 7.842.299 11.81.254 23.486.146 35.617-3.76-.297-7.52-.824-11.142-1.842-12.263-3.447-24.36-7.553-36.736-10.508-17.827-4.257-35.76-8.182-53.802-11.38-13.014-2.306-26.243-3.863-39.44-4.571-22.062-1.185-44.19-2.22-66.264-1.821-19.191.347-38.383 2.399-57.504 4.386a632 632 0 0 0-46.174 6.544c-13.947 2.502-27.689 6.136-41.542 9.177-4.675 1.027-9.413 1.769-14.532 2.6-.463-11.726-.515-23.41-.497-35.56 4.949-1.212 9.886-1.686 14.69-2.758 10.229-2.283 20.309-5.296 30.594-7.243 15.057-2.85 30.22-5.164 45.38-7.438 8.472-1.27 17.027-1.998 26.453-2.996 14.766-.963 28.612-2.403 42.483-2.702 15.111-.325 30.245.397 45.368.69 3.157.06 6.318.154 9.467.378 11.897.845 23.79 1.75 35.684 2.631"/><path fill="#0F0F0F" d="M440.64 41.652c-.831-.015-1.562-.369-2.292-.722.472-.291.944-.582 1.705-.897.422.41.555.845.587 1.619"/><path fill="#171717" d="M192.604 204.358a41824 41824 0 0 1 21.967 31.032c-5.783 1.354-10.224 1.25-12.559-4.428-2.233-5.431-6.351-6.933-11.954-6.362a63.8 63.8 0 0 1-12.975-.01c-4.64-.483-7.606 1.09-9.418 5.301-2.17 5.04-5.65 7.683-12.11 5.455.857-1.473 1.63-2.976 2.56-4.375 5.894-8.866 11.85-17.69 17.73-26.565 5.248-7.92 10.673-8.056 16.76-.048m-7.225.82c-.652-.211-1.797-.731-1.884-.592-3.194 5.13-6.29 10.32-9.707 16.014h21.083a4561 4561 0 0 0-9.492-15.421"/><path fill="#161616" d="M235.618 228.932c4.867 4.69 10.686 3.843 16.344 2.403 3.26-.83 5.2-3.326 5.11-7.069-.115-4.79-.028-9.586-.028-14.786h7.783v26.931l-7.8-1.977c-8.19 2.502-16.791 3.327-25.769-1.418-1.764-7.762-1.698-14.784.507-21.813 1.138 3.227.867 6.532 1.334 9.728.4 2.732 1.647 5.34 2.519 8.001"/><path fill="#171717" d="M349.419 219.586c2.144-3.416.667-5.345-2.736-6.216-6.755-1.729-13.208-2.453-19.01 3.154-1.382 1.337-4.787.583-7.957.85 2.81-6.277 7.572-7.776 12.569-8.174 5.45-.434 10.98-.381 16.442-.033 7.352.469 9.976 3.589 10.07 10.8.057 4.313.311 8.622.095 13.433-2.433.595-4.484.69-6.536.784 0 0-.27-.033-.318-.581.219-2.493.797-4.461.65-6.374-.11-1.427-1.16-2.781-1.74-4.192.048-.024-.014.066-.004-.343-.501-1.31-1.013-2.209-1.525-3.108"/><path fill="#151515" d="M293.19 217.583c-.626 6.12-1.133 11.85-1.677 18.004h-6.805v-27.064l7.66 1.858 16.717-1.902c-.644 4.006-1.247 5.859-4.82 5.079-4.224-.923-8.322-.63-11.076 4.025"/><path fill="#131313" d="M349.006 219.618c.925.867 1.437 1.767 1.504 2.973-7.15 1.073-13.881 1.681-20.543 2.731-1.426.225-2.6 2.052-3.891 3.14 1.227 1.158 2.429 3.274 3.685 3.306 5.314.138 10.753.216 15.93-.793 3.49-.68 5.864-3.694 5.207-7.914.63 1.387 1.68 2.741 1.79 4.168.147 1.913-.431 3.88-.696 6.246-1.746.621-3.49.94-5.243 1.004-7.345.265-14.741.999-22.013.359-2.392-.21-4.466-4.05-6.685-6.23 2.38-2.018 4.5-5.254 7.188-5.824 7.661-1.626 15.553-2.167 23.767-3.166"/><path fill="#0E0E0E" d="M235.575 228.467c-.83-2.197-2.077-4.804-2.476-7.536-.467-3.196-.196-6.501-1.334-9.728-2.205 7.03-2.271 14.05-.75 21.55-1.08-1.298-3.003-2.982-3.12-4.784-.397-6.073-.151-12.188-.151-18.556h7.788c0 6.393 0 12.49.043 19.054"/><path fill="#131313" d="M352.506 234.536c1.902-.447 3.953-.541 6.518-.698.587.662.66 1.387.734 2.111-2.368-.353-4.735-.707-7.252-1.413"/><path fill="#888" d="M322.945 125.66c-11.702-.547-23.594-1.451-35.491-2.296-3.15-.224-6.31-.318-9.467-.379-15.123-.292-30.257-1.014-45.368-.689-13.87.3-27.717 1.74-42.022 2.69 3.973-16.028 14.092-27.796 27.643-36.8 11.744-7.803 25.04-10.144 39.777-10.089l10.02.128c1.043.353 2.085.707 3.768 1.251 1.828.298 3.013.404 4.199.51 6.48 2.833 13.29 5.094 19.373 8.613 14.263 8.252 23.396 20.649 27.568 37.062"/><path fill="#0F0F0F" d="M267.961 77.816c-2.968.37-6.013.332-9.506.212 2.669-3.475 6.024-2.513 9.506-.212m7.976 1.816c-1.119.248-2.304.142-3.8-.14 1.038-.188 2.386-.2 3.8.14"/><path fill="#838383" d="M185.576 205.476c3.09 5.011 5.983 9.726 9.296 15.124h-21.083c3.416-5.693 6.513-10.884 9.707-16.014.087-.14 1.232.38 2.08.89"/><path fill="#828282" d="M350.947 223.037c.608 4.244-1.766 7.258-5.255 7.938-5.178 1.009-10.617.931-15.931.793-1.256-.032-2.458-2.148-3.685-3.305 1.29-1.089 2.465-2.916 3.891-3.14 6.662-1.05 13.393-1.659 20.533-2.322.434.102.496.012.447.036"/></symbol>

	<symbol id="Boleto" width="49" height="32" xmlns="http://www.w3.org/2000/svg" viewBox="0 0 512 320">
	<path fill="#FDFDFD" d="M374 321H1V1h512v320zM93.5 254.187c9.956-.405 20.073.18 29.836-1.41 23.597-3.846 26.946-31.875 16.2-43.162-3.18-3.339-7.435-5.652-11.182-8.423 5.778-3.514 10.319-8.409 11.652-15.586 2.905-15.627-8.208-29.01-24.961-29.55-13.808-.446-27.638-.24-41.458-.29-.594-.002-1.19.326-1.64.458v97.963zm192.033-32.328h42.483c0-3.951.345-7.44-.063-10.84-1.448-12.087-6.536-22.061-18.276-27.021-12.085-5.106-23.83-3.873-34.183 4.454-9.299 7.478-11.575 18.13-12.036 29.414-.87 21.269 9.45 34.985 29.194 37.736 14.458 2.015 31.412-4.409 34.953-22.886L316 231.106c-7.144 13.274-14.823 17.308-25.719 13.678-8.755-2.917-15.193-13.604-13.644-22.925zm156.54 4.68c-.016-5.797.44-11.643-.138-17.384-1.549-15.4-13.19-26.17-29.598-27.946-15.064-1.63-29.482 7.159-33.416 21.69-1.906 7.04-2.207 14.768-1.854 22.118.877 18.29 13.419 30.28 31.297 30.9 17.838.62 31.012-10.537 33.709-29.377M181.002 182.2c-11.97 3.504-19.981 11.153-22.54 23.385-1.308 6.249-1.568 12.892-1.155 19.283.554 8.578 3.35 16.668 10.073 22.593 9.959 8.778 21.562 10.517 33.925 6.506 11.912-3.864 19.46-12.177 20.67-24.738.784-8.13 1.14-16.743-.68-24.591-4.063-17.516-18.426-25.174-40.293-22.438M50.482 63.884h-9.246v193.838h10.96c.071-.77.155-1.26.155-1.75.009-62.807.016-125.613-.024-188.42 0-1.203-.56-2.406-1.846-3.668M471.996 130.5V64.188h-11.11v193.508h11.11zm-271.451 6.962V64.115H180.18V149.1h20.364zM397.95 88.5V64.206h-20.548v84.892h20.548zM70.744 69.54v79.55h20.064V64.06H70.744zm286.34 93.34v-4.86c-2.154 1.203-3.764 2.326-5.537 3.05-5.273 2.153-7.437 5.781-6.588 11.555.49 3.33.09 6.791.09 10.528h-8.637v9.084h8.636c0 5.313-.08 10.129.016 14.941.247 12.467.174 24.963 1.143 37.376.243 3.12 3.29 7.105 6.158 8.708 5.65 3.159 12.097 2.338 18.545.703l-1.888-10.236c-10.496.616-11.876-.655-11.928-10.61-.042-8.157-.009-16.316-.01-24.474V191.91h11.745v-9.218h-11.744zM248.993 203.5v-47.57h-11.668v98.063h11.668zm-187.628-86V64.2h-6.12v193.5h6.12zm354.645 23.911v7.636h11.48V64.195h-11.48zm-100.664 7.239V64.097h-11.142v85.127c3.56 0 7.022 0 11.142-.574m-194.333-1.572V64.062h-11.315v85.957c4.024-.722 7.662-1.376 11.315-2.941M362.922 89.5V64.224H351.43v84.851h11.492zm-88 5V64.22h-11.497v84.86h11.497zm-124.844 39.996v14.533h11.55V64.075h-11.55zM218.921 87.5v61.593h10.967V64.227h-10.967zm105.67-17.82v-5.62h-6.412v84.948h6.412zM438.41 92.5v56.543h6.305V63.748l-6.305.344zm-69.883 56.91c3.689.627 3.44-1.785 3.436-4.256-.037-25.972-.018-51.944-.04-77.915 0-1.087-.246-2.174-.357-3.088h-6.446c0 27.745-.023 55.185.108 82.625.004.88 1.598 1.754 3.299 2.633m35.497-7.06v6.761h6.533V64.04h-6.533zM247.813 113.5V64.205h-6.469v84.905h6.47zm-83.696 5v30.593h6.56V64.044h-6.56zm283.564-25v56.057l4.873-.515v-84.84h-4.873zM339.179 70.545v-6.497h-5.923v85.038h5.923zM104.019 103.5V64.214h-5.936v84.893h5.936zm27.935 1v44.578h5.974V64.044h-5.974zm75.027 23v21.925l5.936-.286V64.063h-5.936zm85.038 4V64.2h-5.948v84.92h5.948zm-41.895-33v50.51h4.72V63.709l-4.72.55zm-109.12 3v47.99l4.826-.431V64.222h-4.826zm158.92 41.91V64.116h-4.827v85.244l4.828-.265zm47.071-66.901v-12.4h-4.766v85.01h4.766z"/><path fill="#050505" d="M93 254.187H71.947v-97.963c.45-.132 1.046-.46 1.64-.458 13.82.05 27.65-.156 41.458.29 16.753.54 27.866 13.923 24.961 29.55-1.333 7.177-5.874 12.072-11.652 15.586 3.747 2.77 8.003 5.084 11.182 8.423 10.746 11.287 7.397 39.316-16.2 43.161-9.763 1.591-19.88 1.006-30.336 1.411m-8.22-15.835.292 3.677c11.3 0 22.122.48 32.878-.155 8.298-.49 13.699-7.172 13.999-15.438.308-8.5-4.276-15.347-12.77-16.322-11.293-1.296-22.745-1.207-34.4-1.725zm19.68-41.35c4.449-.353 8.99-.259 13.324-1.163 6.305-1.317 9.908-6.396 10.118-13.03.213-6.733-3.335-13.17-9.443-13.957-11.045-1.425-22.248-1.627-33.487-2.346v30.496z"/><path fill="#070707" d="M285.039 221.859h-8.401c-1.549 9.321 4.89 20.008 13.644 22.925 10.896 3.63 18.575-.404 25.719-13.678l11.604 1.61c-3.541 18.477-20.495 24.9-34.953 22.886-19.744-2.751-30.064-16.467-29.194-37.736.461-11.283 2.737-21.936 12.036-29.414 10.354-8.327 22.098-9.56 34.183-4.454 11.74 4.96 16.828 14.934 18.276 27.02.408 3.4.063 6.89.063 10.84zm24.816-25.19c-6.61-6.029-14.17-7.263-22.101-3.424-7.333 3.55-10.722 9.924-11.015 18.31h40.204c-2.46-5.346-4.53-9.842-7.088-14.886"/><path fill="#060606" d="M442.048 226.977c-2.672 18.403-15.846 29.56-33.684 28.94-17.878-.62-30.42-12.61-31.297-30.9-.353-7.35-.052-15.078 1.854-22.119 3.934-14.53 18.352-23.32 33.416-21.689 16.409 1.776 28.05 12.547 29.598 27.946.577 5.741.122 11.587.113 17.822M392.15 201.87c-4.224 9.685-4.452 19.642-1.398 29.59 2.825 9.207 10.348 14.61 19.17 14.443 8.707-.165 16.79-5.984 18.66-15.082 1.378-6.71 1.784-13.92.962-20.707-1.073-8.867-5.87-15.86-15.312-18.092-9.096-2.15-15.957.906-22.082 9.848m-210.739-19.747c21.458-2.66 35.82 4.999 39.884 22.515 1.82 7.848 1.464 16.461.68 24.591-1.21 12.561-8.758 20.874-20.67 24.738-12.363 4.01-23.966 2.272-33.925-6.506-6.722-5.925-9.519-14.015-10.073-22.593-.413-6.39-.153-13.034 1.154-19.283 2.56-12.232 10.571-19.88 22.95-23.462m-8.203 18.801c-4.695 9.35-5.06 19.121-2.418 29.023 2.725 10.216 10.689 16.375 20.042 15.948 9.526-.434 17.63-7.612 18.983-17.878.79-5.994.772-12.24.07-18.251-1.019-8.725-5.868-15.233-14.563-17.614-8.913-2.44-16.298.545-22.114 8.772"/><path fill="#020202" d="M50.975 63.914c.792 1.232 1.352 2.435 1.352 3.639.04 62.806.033 125.612.024 188.419 0 .49-.084.98-.154 1.75h-10.96V63.884c3.056 0 6.15 0 9.738.03M471.996 131v126.696h-11.11V64.188h11.11z"/><path fill="#080808" d="M200.545 137.954V149.1H180.18V64.115h20.364z"/><path fill="#040404" d="M397.95 89v60.098h-20.547V64.206h20.548z"/><path fill="#020202" d="M70.744 69.043v-4.984h20.064v85.031H70.744z"/><path fill="#050505" d="M357.085 163.34v19.352h11.744v9.218h-11.744v16.734c0 8.158-.033 16.317.01 24.475.051 9.954 1.431 11.225 11.927 10.609l1.888 10.236c-6.448 1.635-12.894 2.456-18.545-.703-2.868-1.603-5.915-5.588-6.158-8.708-.969-12.413-.896-24.91-1.143-37.376-.096-4.812-.016-9.628-.016-14.941h-8.636v-9.084h8.636c0-3.737.401-7.198-.089-10.528-.849-5.774 1.315-9.402 6.588-11.556 1.773-.723 3.383-1.846 5.538-3.05z"/><path fill="#020202" d="M248.993 204v49.993h-11.668V155.93h11.668zM61.365 118v139.7h-6.12V64.2h6.12z"/><path fill="#0B0B0B" d="M416.01 140.922V64.195h11.48v84.852h-11.48z"/><path fill="#0C0C0C" d="M315.017 148.937c-3.79.287-7.252.287-10.813.287V64.097h11.142c0 28.346 0 56.45-.329 84.84m-194.012-1.403c-3.645 1.109-7.283 1.763-11.307 2.485V64.062h11.315c0 27.59 0 55.303-.008 83.472"/><path fill="#080808" d="M362.922 90v59.075H351.43v-84.85h11.492zm-88 5v54.08h-11.497V64.22h11.497zm-124.844 38.996v-69.92h11.55v84.953h-11.55z"/><path fill="#020202" d="M218.921 87V64.227h10.967v84.866h-10.967z"/><path fill="#141414" d="M324.591 70.16v78.848h-6.412V64.059h6.412zM438.409 92V64.092l6.305-.344v85.295h-6.305z"/><path fill="#101010" d="M368.102 149.408c-1.277-.878-2.87-1.751-2.875-2.632-.131-27.44-.108-54.88-.108-82.625h6.446c.11.914.356 2.001.357 3.088.022 25.971.003 51.943.04 77.915.003 2.47.253 4.883-3.86 4.254m35.921-7.543V64.04h6.533v85.07h-6.533zM247.813 114v35.11h-6.469V64.205h6.47zm-83.695 4V64.044h6.56v85.049h-6.56z"/><path fill="#161616" d="M447.682 93V64.202h4.873v84.84l-4.873.515z"/><path fill="#020202" d="M339.179 71.042v78.044h-5.923V64.048h5.923zM104.019 104v45.107h-5.936V64.214h5.936zm27.935 0V64.044h5.974v85.034h-5.974zm75.027 23V64.063h5.936v85.076l-5.936.286zm85.038 4.999v17.123h-5.948v-84.92h5.948z"/><path fill="#0E0E0E" d="M250.124 98V64.26l4.72-.551v85.3h-4.72z"/><path fill="#020202" d="M141.004 101V64.222h4.826v84.837l-4.826.432z"/><path fill="#0A0A0A" d="M299.925 143.9v5.194l-4.828.265V64.115h4.828z"/><path fill="#020202" d="M346.996 77.008v72.111h-4.766V64.111h4.766z"/><path fill="#FDFDFD" d="M84.78 237.864V208.39c11.654.518 23.106.43 34.398 1.725 8.495.975 13.079 7.822 12.77 16.322-.299 8.266-5.7 14.949-13.998 15.438-10.756.635-21.578.155-32.878.155-.067-.84-.18-2.26-.293-4.165m19.186-40.863H84.97v-30.496c11.239.719 22.442.921 33.487 2.346 6.108.788 9.656 7.224 9.443 13.956-.21 6.635-3.813 11.714-10.118 13.03-4.333.905-8.875.811-13.818 1.164"/><path fill="#F8F8F8" d="M310.1 196.941c2.314 4.77 4.383 9.267 6.843 14.613h-40.204c.293-8.386 3.682-14.76 11.015-18.31 7.931-3.839 15.49-2.605 22.346 3.697"/><path fill="#FDFDFD" d="M392.349 201.548c5.926-8.62 12.787-11.676 21.883-9.526 9.442 2.231 14.239 9.225 15.312 18.092.822 6.786.416 13.997-.963 20.707-1.87 9.098-9.952 14.917-18.66 15.082-8.82.168-16.344-5.236-19.17-14.443-3.053-9.948-2.825-19.905 1.598-29.912m-218.926-.928c5.6-7.923 12.986-10.909 21.899-8.468 8.695 2.38 13.544 8.89 14.563 17.614.702 6.01.72 12.257-.07 18.25-1.354 10.267-9.457 17.445-18.983 17.88-9.353.426-17.317-5.733-20.042-15.949-2.642-9.902-2.277-19.673 2.633-29.326"/></symbol>

	<symbol id="Discover" width="49" height="32" xmlns="http://www.w3.org/2000/svg" viewBox="0 0 512 320"><path d="M296.73 164.73c-1.977 16.344-12.948 27.524-27.633 28.523-14.167.964-27.036-8.404-30.904-22.498-4.498-16.388 6.524-34.08 23.065-37.024 17.494-3.113 33.507 8.779 35.158 26.117.141 1.486.245 2.977.313 4.883M80.656 173c0-11.485.211-22.475-.097-33.45-.133-4.748 1.653-6.155 6.085-5.862 5.137.339 10.4-.352 15.435.47 16.053 2.623 25.949 14.977 25.25 30.8-.619 13.97-12.693 25.762-27.959 26.995-4.795.387-9.648.028-14.472.12-3.24.06-4.379-1.461-4.274-4.595.156-4.655.035-9.319.032-14.479m11.634-2.552v3.493c.007 8.152.008 8.152 7.997 6.746 10.303-1.813 15.298-8.884 14.384-20.361-.701-8.796-8.322-15.082-17.994-15.138-3.208-.018-4.503 1.044-4.43 4.314.147 6.65.043 13.307.043 20.946m311.06 6.789c-.005 3.124.001 5.786-.019 8.448-.045 5.833-4.473 8.488-9.911 6.043-1.518-.683-1.784-1.855-1.793-3.222-.118-16.963-.239-33.927-.295-50.89-.006-1.88.39-3.82 2.942-3.787 6.635.089 13.29-.719 19.9.575 7.432 1.455 12.525 5.526 13.839 13.14 1.323 7.67-.957 14.148-7.78 18.564-.833.538-1.644 1.11-3.096 2.094l15.921 22.72c-9.722 3.048-13.585 1.734-18.412-5.517-3.377-5.073-6.854-10.08-11.296-14.879zm.006-21.149c.053 1.5.018 2.93 1.915 3.573 3.944 1.334 9.09-1.014 10.245-4.819 1.37-4.511-1.033-9.09-5.384-10.263-4.89-1.316-6.716.065-6.778 5.15-.022 1.824-.004 3.648.002 6.36m-36.55.23c4.724.209 9.051.425 13.367.28 4.462-.15 4.019 2.832 4.093 5.698.077 2.997-.375 5.281-4.25 5.075-3.482-.186-6.99.11-10.474-.057-3.218-.155-4.647 1.137-4.43 4.353.09 1.324.136 2.672-.003 3.988-.416 3.959 1.352 5.363 5.217 5.107 3.643-.242 7.316 0 10.974-.041 3.597-.041 3.953 2.34 3.845 5.045-.11 2.724.674 6.186-3.676 6.247-8.48.12-16.963.055-25.445.015-2.19-.01-3.32-1.16-3.317-3.443.016-17.132.006-34.264-.003-51.396-.001-2.261 1.149-3.38 3.362-3.388 8.482-.03 16.965-.053 25.447-.04 4.104.006 3.633 3.07 3.642 5.699.01 2.652.398 5.64-3.69 5.663q-4.74.024-9.48.055c-6.927.044-7.32.472-6.86 7.41.087 1.319-.033 2.703 1.681 3.73M346.59 141.51c-6.55 16.075-12.968 31.79-19.326 47.528-.985 2.439-1.934 4.343-5.194 4.356-3.229.013-4.747-1.331-5.888-4.16-6.534-16.205-13.263-32.332-19.746-48.557-.788-1.972-3.364-4.529-.148-6.528 2.981-1.853 10.431-.192 11.62 2.492 3.164 7.151 6.133 14.39 9.179 21.594 1.486 3.515 2.97 7.032 4.734 11.212 3.076-5.373 4.709-10.691 6.774-15.813 1.619-4.013 3.246-8.022 4.855-12.038 3.441-8.59 5.788-9.686 15.082-6.955.654 2.495-1.163 4.35-1.943 6.869m-167.906-5.472c5.677 3.653 5.68 6.806.462 10.52-1.385.986-2.378.597-3.6-.163-1.258-.782-2.574-1.673-3.98-1.972-3.771-.8-7.63-.773-9.323 3.488-1.85 4.65 2.416 5.509 5.177 6.952 2.49 1.303 5.275 2.03 7.833 3.22 8.894 4.132 12.513 10.856 10.678 19.61-1.92 9.157-9.041 15.244-18.21 15.602-6.663.26-12.402-2.052-17.377-6.327-4.498-3.866-4.484-4.85-.264-8.966 1.057-1.03 2.19-1.982 3.336-3.014 2.555 1.948 4.754 4.017 7.3 5.481 4.362 2.51 9.521 1.598 11.719-1.687 2.422-3.619 1.4-8.112-2.643-10.168-2.646-1.345-5.584-2.114-8.385-3.156-9.933-3.694-13.92-10.733-11.461-20.215 2.152-8.296 11.8-13.852 20.927-12.064 2.633.516 5.118 1.426 7.81 2.86m22.111 2.654c8.056-5.822 16.562-7.275 25.877-5.156 4.73 1.076 7.503 3.138 6.7 8.497-.336 2.252-.055 4.596-.055 7.926-11.304-7.67-21.508-8.551-29.806 2.723-4.909 6.669-4.223 15.928 1.127 22.274 3.463 4.106 7.873 6.388 13.388 6.815 5.53.428 9.727-2.642 14.536-5.138 1.266 4.13.786 7.921.54 11.638-.182 2.733-2.863 3.02-4.81 3.685-12.113 4.142-25.827-.28-33.356-10.644-8.077-11.117-8.328-25.244-.623-35.918 1.763-2.443 3.819-4.618 6.482-6.702m-69.78 17.303c.025-5.98.228-11.468.016-16.94-.198-5.116 2.815-5.36 6.71-5.407 3.843-.046 5.742.836 5.685 5.24-.208 16.11-.193 32.224-.01 48.333.048 4.272-2.061 5.002-5.539 4.9-3.377-.1-6.846.427-6.796-4.764.099-10.287-.033-20.576-.066-31.362"/></symbol>

	<symbol xmlns="http://www.w3.org/2000/svg" width="49" height="32" viewBox="0 0 512 320" id="JCB"><path d="M181.682 187.639c6.413-.696 12.383-1.25 17.919-3.862 6.978-3.29 10.866-8.705 11.011-16.447.166-8.829-.059-17.665.104-26.494.063-3.38-1.044-4.93-4.555-4.813-4.328.142-8.669.13-12.995-.035-3.596-.137-5.092 1.226-5.001 4.953.186 7.66.114 15.33.03 22.995-.125 11.365-7.215 17.47-18.467 16.045-6.137-.778-12.108-2.123-17.82-4.596-2.275-.985-3.286-2.358-3.277-4.913.082-21.663-.21-43.33.175-64.987.23-12.882 12.087-24.375 25.085-24.727 12.988-.351 25.995.047 38.99-.167 4.66-.077 4.462 2.667 4.46 5.832-.031 33.494-.023 66.989-.025 100.483-.001 8.998.05 17.997-.015 26.995-.111 15.435-11.832 27.288-27.18 27.413-11.997.098-23.997-.097-35.992.1-3.992.066-5.608-1.042-5.55-5.314.206-15.495.074-30.994.095-46.491.002-1.47-.24-3.025 1.16-4.683 10.235 1.377 20.719 3.281 31.848 2.713m61.03-105.325c5.827-2.318 11.546-1.597 17.182-1.64 9-.071 18.01.23 26.996-.122 4.942-.193 6.603 1.202 6.561 6.384-.238 29.498-.112 58.999-.113 88.499 0 12.833.043 25.667-.023 38.5-.078 15.424-11.804 27.26-27.178 27.38-12.165.096-24.333.008-36.5.027-2.658.004-4.988-.042-4.97-3.791.087-18.666.052-37.332.086-55.998 0-.465.29-.93.586-1.813 2.873 1.388 5.561 2.97 8.44 4.032 13.696 5.053 27.75 4.59 41.884 2.42.493-.076.972-.238 1.463-.323 8.198-1.43 8.594-2.023 6.877-10.881-5.97 2.068-11.886 4.289-18.201 4.82-1.986.167-4.002.436-5.971.27-13.363-1.128-20.801-9.146-19.488-20.871 1.326-11.841 10.68-18.63 23.615-17.21 6.8.747 13.371 2.387 19.656 5.114 2.64-8.038 1.705-9.541-6.035-10.93-12.58-2.258-25.113-2.619-37.7.086-5.068 1.088-9.438 3.854-14.161 5.59-1.528-1.878-1.024-3.774-1.034-5.529-.053-9.166-.04-18.333-.018-27.5.031-12.635 5.966-21.463 18.046-26.514m64.941 7.38c6.14-6.31 13.272-9.18 21.753-9.073 11.492.143 22.99.166 34.481-.038 4.002-.07 5.547 1.046 5.535 5.308-.129 43.145-.021 86.29-.114 129.435-.03 13.594-11.775 25.593-25.477 25.918-12.82.305-25.652.01-38.478.13-3.394.032-4.738-1.144-4.71-4.639.117-15.325.139-30.652-.024-45.976-.042-3.93 1.83-4.817 5.18-4.803 12.327.052 24.654.016 36.981.002 3.849-.004 7.675-.162 11.152-2.128 4.2-2.377 6.898-5.683 6.758-10.794-.143-5.167-3.134-8.256-7.538-10.204-1.95-.862-4.053-1.374-6.135-2.06.261-2.381 2.412-2.109 3.718-2.75 4.313-2.118 6.742-5.534 6.808-10.226.069-4.82-2.718-8.047-6.984-10.048-2.298-1.077-4.726-1.539-7.264-1.548-12.16-.045-24.32-.273-36.476-.094-4.752.07-6.502-1.488-6.244-6.347.372-6.977.162-13.989.085-20.985-.079-7.13 2.043-13.421 6.993-19.08"/><path d="M323.967 179.004c-10.054.039-12.103-2.72-9.944-12.418.513-2.303 1.836-2.897 3.892-2.88 4.152.035 8.31-.132 12.453.055 4.78.215 7.805 3.13 7.933 7.257.134 4.322-2.372 7.03-7.402 7.712-2.127.288-4.306.193-6.932.274m-.987-36.256c2.796.071 5.17-.147 7.419.284 3.337.64 5.762 2.48 5.917 6.307.16 3.944-1.827 6.302-5.516 7.14-4.575 1.037-9.243.575-13.872.383-1.667-.069-2.728-1.116-2.908-2.855-.085-.823-.106-1.654-.13-2.483-.26-8.772-.258-8.772 9.09-8.776"/></symbol>

	<symbol id="BarsNewMenu" width="18" height="18" viewBox="0 0 18 18" fill="none" xmlns="http://www.w3.org/2000/svg"><path fill-rule="evenodd" clip-rule="evenodd" d="M6 10a2 2 0 0 1 2 2v4a2 2 0 0 1-2 2H2a2 2 0 0 1-2-2v-4a2 2 0 0 1 2-2zm10 0a2 2 0 0 1 2 2v4a2 2 0 0 1-2 2h-4a2 2 0 0 1-2-2v-4a2 2 0 0 1 2-2zM6 0a2 2 0 0 1 2 2v4a2 2 0 0 1-2 2H2a2 2 0 0 1-2-2V2a2 2 0 0 1 2-2zm10 0a2 2 0 0 1 2 2v4a2 2 0 0 1-2 2h-4a2 2 0 0 1-2-2V2a2 2 0 0 1 2-2z" fill="#fff"/></symbol>
</svg>
